<svg xmlns="http://www.w3.org/2000/svg" xmlns:xlink="http://www.w3.org/1999/xlink" width="1080" zoomAndPan="magnify" viewBox="0 0 810 225" height="300" preserveAspectRatio="xMidYMid meet" version="1.0"><defs><g/><clipPath id="d50b5aefe5"><path d="M 647.457031 83.074219 L 702.84375 83.074219 L 702.84375 138.464844 L 647.457031 138.464844 Z M 647.457031 83.074219 " clip-rule="nonzero"/></clipPath><clipPath id="c80ce6b69b"><path d="M 675.148438 83.074219 C 659.855469 83.074219 647.457031 95.476562 647.457031 110.769531 C 647.457031 126.066406 659.855469 138.464844 675.148438 138.464844 C 690.445312 138.464844 702.84375 126.066406 702.84375 110.769531 C 702.84375 95.476562 690.445312 83.074219 675.148438 83.074219 Z M 675.148438 83.074219 " clip-rule="nonzero"/></clipPath><clipPath id="397d74f81f"><path d="M 702.84375 82.3125 L 758.230469 82.3125 L 758.230469 137.699219 L 702.84375 137.699219 Z M 702.84375 82.3125 " clip-rule="nonzero"/></clipPath><clipPath id="4a233bd8ea"><path d="M 730.535156 82.3125 C 715.242188 82.3125 702.84375 94.710938 702.84375 110.007812 C 702.84375 125.300781 715.242188 137.699219 730.535156 137.699219 C 745.832031 137.699219 758.230469 125.300781 758.230469 110.007812 C 758.230469 94.710938 745.832031 82.3125 730.535156 82.3125 Z M 730.535156 82.3125 " clip-rule="nonzero"/></clipPath><clipPath id="50fe05d328"><path d="M 211.214844 36.589844 L 229.472656 36.589844 L 229.472656 170.246094 L 211.214844 170.246094 Z M 211.214844 36.589844 " clip-rule="nonzero"/></clipPath><clipPath id="b3347c3329"><path d="M 220.34375 36.589844 C 222.765625 36.589844 225.085938 37.550781 226.796875 39.261719 C 228.511719 40.976562 229.472656 43.296875 229.472656 45.71875 L 229.472656 161.054688 C 229.472656 163.476562 228.511719 165.800781 226.796875 167.511719 C 225.085938 169.222656 222.765625 170.183594 220.34375 170.183594 C 217.921875 170.183594 215.601562 169.222656 213.886719 167.511719 C 212.175781 165.800781 211.214844 163.476562 211.214844 161.054688 L 211.214844 45.71875 C 211.214844 43.296875 212.175781 40.976562 213.886719 39.261719 C 215.601562 37.550781 217.921875 36.589844 220.34375 36.589844 Z M 220.34375 36.589844 " clip-rule="nonzero"/></clipPath><clipPath id="a5ec9e9d5c"><path d="M 62.539062 36.589844 L 188.191406 36.589844 L 188.191406 162.242188 L 62.539062 162.242188 Z M 62.539062 36.589844 " clip-rule="nonzero"/></clipPath><clipPath id="f6f8b4af69"><path d="M 125.367188 36.589844 C 90.667969 36.589844 62.539062 64.71875 62.539062 99.414062 C 62.539062 134.113281 90.667969 162.242188 125.367188 162.242188 C 160.066406 162.242188 188.191406 134.113281 188.191406 99.414062 C 188.191406 64.71875 160.066406 36.589844 125.367188 36.589844 Z M 125.367188 36.589844 " clip-rule="nonzero"/></clipPath><clipPath id="ff351b6a43"><path d="M 5.550781 80.179688 L 89.316406 80.179688 L 89.316406 163.945312 L 5.550781 163.945312 Z M 5.550781 80.179688 " clip-rule="nonzero"/></clipPath><clipPath id="1d80decb3f"><path d="M 47.433594 80.179688 C 24.300781 80.179688 5.550781 98.929688 5.550781 122.0625 C 5.550781 145.195312 24.300781 163.945312 47.433594 163.945312 C 70.566406 163.945312 89.316406 145.195312 89.316406 122.0625 C 89.316406 98.929688 70.566406 80.179688 47.433594 80.179688 Z M 47.433594 80.179688 " clip-rule="nonzero"/></clipPath></defs><path stroke-linecap="butt" transform="matrix(3.990224, 0, 0, 3.990224, 230.638906, 68.872464)" fill="none" stroke-linejoin="miter" d="M 24.598637 -2.689533 C 25.540392 -2.689533 26.218808 -2.66408 26.633885 -2.613175 C 27.039172 -2.552479 27.307406 -2.461437 27.438586 -2.340046 C 27.560955 -2.218656 27.62165 -2.011117 27.62165 -1.717431 L 27.62165 17.103961 C 27.62165 17.397647 27.555081 17.605186 27.423901 17.726576 C 27.291742 17.847967 26.998056 17.93901 26.542842 17.999705 C 26.076859 18.0604 25.322085 18.090748 24.279497 18.090748 C 23.235931 18.090748 22.527168 18.030052 22.152228 17.908662 C 21.767499 17.797061 21.49437 17.589523 21.332842 17.286047 L 15.605955 7.290915 L 15.605955 17.134309 C 15.605955 17.427995 15.54526 17.635534 15.42289 17.756924 C 15.29171 17.878314 15.023477 17.964462 14.618189 18.015368 C 14.203112 18.066274 13.524696 18.090748 12.582941 18.090748 C 11.641187 18.090748 10.967665 18.0604 10.562378 17.999705 C 10.147301 17.949778 9.879067 17.86363 9.757677 17.74224 C 9.635307 17.630639 9.574612 17.427995 9.574612 17.134309 L 9.574612 -1.687083 C 9.574612 -1.98077 9.641181 -2.193203 9.772361 -2.324383 C 9.893752 -2.446752 10.187438 -2.537795 10.653421 -2.59849 C 11.109614 -2.659186 11.858515 -2.689533 12.902081 -2.689533 C 13.944668 -2.689533 14.658326 -2.633733 15.044035 -2.522132 C 15.417995 -2.400741 15.686229 -2.188308 15.848736 -1.883853 L 21.575623 8.141627 L 21.575623 -1.717431 C 21.575623 -2.011117 21.641213 -2.218656 21.773372 -2.340046 C 21.894763 -2.461437 22.162996 -2.552479 22.578073 -2.613175 C 22.983361 -2.66408 23.656882 -2.689533 24.598637 -2.689533 Z M 37.073462 2.14161 C 39.746989 2.14161 41.697067 2.794574 42.92174 4.1005 C 44.137603 5.407405 44.744555 7.447547 44.744555 10.222885 C 44.744555 12.997244 44.137603 15.037387 42.92174 16.344292 C 41.697067 17.650218 39.746989 18.30416 37.073462 18.30416 C 34.399936 18.30416 32.450836 17.645323 31.225184 16.328628 C 30.000511 15.022702 29.387685 12.987455 29.387685 10.222885 C 29.387685 7.458316 30.000511 5.417194 31.225184 4.1005 C 32.450836 2.794574 34.399936 2.14161 37.073462 2.14161 Z M 37.073462 13.761808 C 37.823342 13.761808 38.334356 13.498469 38.608464 12.971791 C 38.871803 12.455882 39.002983 11.538601 39.002983 10.222885 C 39.002983 8.906191 38.871803 7.984015 38.608464 7.458316 C 38.334356 6.941428 37.823342 6.682983 37.073462 6.682983 C 36.324562 6.682983 35.818442 6.941428 35.555103 7.458316 C 35.280995 7.984015 35.144921 8.906191 35.144921 10.222885 C 35.144921 11.538601 35.280995 12.455882 35.555103 12.971791 C 35.818442 13.498469 36.324562 13.761808 37.073462 13.761808 Z M 51.934001 -2.719881 L 51.934001 4.055468 C 52.835619 2.77891 54.248251 2.14161 56.172877 2.14161 C 58.106313 2.14161 59.564957 2.774015 60.546849 4.039804 C 61.52972 5.305593 62.021155 7.366294 62.021155 10.222885 C 62.021155 13.078497 61.52972 15.139198 60.546849 16.404987 C 59.564957 17.670776 58.106313 18.30416 56.172877 18.30416 C 54.208114 18.30416 52.765134 17.640428 51.842958 16.313944 L 51.812611 17.195004 C 51.802821 17.458343 51.742126 17.645323 51.630525 17.756924 C 51.518924 17.868525 51.276143 17.949778 50.901204 17.999705 C 50.516474 18.0604 49.898754 18.090748 49.048042 18.090748 C 48.18754 18.090748 47.569819 18.066274 47.194879 18.015368 C 46.81015 17.964462 46.562474 17.878314 46.450874 17.756924 C 46.329483 17.645323 46.268788 17.458343 46.268788 17.195004 L 46.268788 -2.719881 C 46.268788 -2.98322 46.329483 -3.175095 46.450874 -3.297464 C 46.572264 -3.408086 46.824834 -3.48934 47.210543 -3.540245 C 47.595272 -3.591151 48.227677 -3.615625 49.108737 -3.615625 C 49.989796 -3.615625 50.62318 -3.591151 51.00791 -3.540245 C 51.392639 -3.48934 51.646188 -3.408086 51.767579 -3.297464 C 51.878201 -3.185863 51.934001 -2.993009 51.934001 -2.719881 Z M 51.934001 10.222885 C 51.934001 11.498464 52.101403 12.395187 52.435226 12.911096 C 52.75926 13.437774 53.336844 13.701113 54.166998 13.701113 C 54.926667 13.701113 55.463135 13.437774 55.777379 12.911096 C 56.080855 12.395187 56.233572 11.498464 56.233572 10.222885 C 56.233572 8.946328 56.080855 8.045689 55.777379 7.519011 C 55.463135 7.002123 54.926667 6.743679 54.166998 6.743679 C 53.336844 6.743679 52.75926 7.002123 52.435226 7.519011 C 52.101403 8.045689 51.934001 8.946328 51.934001 10.222885 Z M 69.847901 13.214572 L 69.99964 13.214572 C 70.273747 13.214572 70.470517 13.265478 70.592886 13.367289 C 70.703508 13.468121 70.789656 13.68545 70.850352 14.020252 C 70.911047 14.364844 70.941394 14.901312 70.941394 15.630633 C 70.941394 16.663431 70.866015 17.326184 70.714277 17.61987 C 70.56156 17.913557 70.222841 18.0604 69.696163 18.0604 L 67.949707 18.0604 C 66.237515 18.0604 65.083327 17.756924 64.486164 17.148993 C 63.888023 16.55183 63.589441 15.381979 63.589441 13.640418 L 63.589441 -2.719881 C 63.589441 -2.98322 63.650136 -3.175095 63.771527 -3.297464 C 63.893896 -3.408086 64.146467 -3.48934 64.531196 -3.540245 C 64.915925 -3.591151 65.549309 -3.615625 66.430369 -3.615625 C 67.311429 -3.615625 67.943834 -3.591151 68.328563 -3.540245 C 68.714271 -3.48934 68.966842 -3.408086 69.088232 -3.297464 C 69.199833 -3.185863 69.255634 -2.993009 69.255634 -2.719881 L 69.255634 12.561609 C 69.255634 12.815158 69.301645 12.987455 69.392687 13.078497 C 69.472962 13.16954 69.625679 13.214572 69.847901 13.214572 Z M 85.331056 11.407421 L 77.083359 11.407421 C 77.153844 12.409871 77.366277 13.10395 77.720659 13.48868 C 78.065251 13.883198 78.601718 14.080947 79.33104 14.080947 C 79.787233 14.080947 80.141615 14.004589 80.394185 13.852851 C 80.637945 13.710902 80.769125 13.519027 80.789683 13.276246 C 80.810241 13.002139 80.860168 12.815158 80.941421 12.713347 C 81.011906 12.612515 81.220423 12.531261 81.564037 12.470566 C 81.898839 12.419661 82.470549 12.395187 83.281124 12.395187 C 83.827381 12.395187 84.242458 12.400081 84.526355 12.409871 C 84.810252 12.430429 85.068696 12.455882 85.300708 12.486229 C 85.5337 12.526367 85.691312 12.591957 85.771586 12.682999 C 85.852839 12.784811 85.913534 12.901306 85.95465 13.032486 C 85.994788 13.164645 86.015346 13.346731 86.015346 13.579722 C 86.015346 14.176885 85.893955 14.7437 85.650195 15.281146 C 85.397625 15.827403 85.01779 16.328628 84.511671 16.784822 C 84.004572 17.250804 83.300703 17.61987 82.400064 17.893978 C 81.498447 18.167106 80.455859 18.30416 79.270345 18.30416 C 76.617376 18.30416 74.652613 17.645323 73.377035 16.328628 C 72.100477 15.012913 71.462199 12.976686 71.462199 10.222885 C 71.462199 7.447547 72.075024 5.407405 73.300676 4.1005 C 74.51556 2.794574 76.45487 2.14161 79.118607 2.14161 C 81.508236 2.14161 83.295808 2.774015 84.481323 4.039804 C 85.656069 5.305593 86.243442 7.067713 86.243442 9.326162 L 86.243442 10.009473 C 86.243442 10.556709 86.187642 10.926754 86.076041 11.118629 C 85.96444 11.311483 85.716764 11.407421 85.331056 11.407421 Z M 79.20965 6.363844 C 78.531234 6.363844 78.034903 6.541035 77.720659 6.895417 C 77.396625 7.260567 77.19496 7.832277 77.113707 8.612504 L 80.880726 8.612504 L 80.880726 8.263017 C 80.880726 7.655086 80.76423 7.184208 80.531239 6.850385 C 80.298248 6.526351 79.857718 6.363844 79.20965 6.363844 Z M 94.328633 10.784805 L 93.979146 10.784805 L 93.979146 17.134309 C 93.979146 17.427995 93.918451 17.635534 93.79706 17.756924 C 93.664901 17.878314 93.396667 17.964462 92.99138 18.015368 C 92.576303 18.066274 91.897887 18.090748 90.956132 18.090748 C 90.014377 18.090748 89.340856 18.0604 88.935569 17.999705 C 88.520492 17.949778 88.252258 17.86363 88.130868 17.74224 C 88.009477 17.630639 87.948782 17.427995 87.948782 17.134309 L 87.948782 -1.626388 C 87.948782 -1.909306 88.019267 -2.116844 88.161215 -2.249003 C 88.292395 -2.370394 88.576292 -2.461437 89.011927 -2.522132 C 89.436794 -2.573038 90.130873 -2.59849 91.093186 -2.59849 L 95.787276 -2.59849 C 98.673236 -2.59849 100.754494 -2.061044 102.030073 -0.988109 C 103.295862 0.0955942 103.929246 1.832261 103.929246 4.22189 C 103.929246 6.764237 102.906238 8.566493 100.860222 9.629638 C 101.458363 10.004578 101.974272 10.491119 102.409908 11.088282 C 103.412358 12.516577 104.106437 14.374634 104.491166 16.663431 C 104.541093 16.916002 104.556756 17.129414 104.536198 17.30171 C 104.516619 17.483795 104.414808 17.630639 104.232722 17.74224 C 104.039868 17.86363 103.706044 17.949778 103.230272 17.999705 C 102.743731 18.0604 102.065315 18.090748 101.195024 18.090748 C 100.384449 18.090748 99.787287 18.0604 99.402557 17.999705 C 99.007059 17.93901 98.748615 17.852862 98.627225 17.74224 C 98.496045 17.630639 98.399128 17.448553 98.338433 17.195004 C 97.99482 15.61497 97.482826 14.17199 96.80441 12.866064 C 96.075089 11.549369 95.24983 10.85529 94.328633 10.784805 Z M 93.979146 2.445087 L 93.979146 6.060368 L 95.589527 6.060368 C 96.429471 6.060368 97.011949 5.943872 97.335983 5.710881 C 97.650228 5.47789 97.80686 4.992328 97.80686 4.252238 C 97.80686 3.604169 97.634564 3.139166 97.290951 2.855269 C 96.946359 2.58214 96.379544 2.445087 95.589527 2.445087 Z M 93.979146 2.445087 " stroke="#808080" stroke-width="0.42787" stroke-opacity="1" stroke-miterlimit="4"/><path stroke-linecap="butt" transform="matrix(3.990224, 0, 0, 3.990224, 230.638906, 68.872464)" fill="none" stroke-linejoin="miter" d="M 143.214716 7.108829 L 139.888226 7.108829 L 139.888226 12.500914 C 139.888226 12.784811 139.974374 13.002139 140.14667 13.153877 C 140.318967 13.316383 140.550979 13.397637 140.844665 13.397637 C 141.260721 13.397637 141.685588 13.316383 142.121223 13.153877 C 142.485394 13.032486 142.779081 13.062834 143.002283 13.24492 C 143.224505 13.427984 143.493718 13.943894 143.806984 14.794606 C 144.070323 15.48379 144.202482 16.015363 144.202482 16.390303 C 144.202482 16.794611 143.984175 17.12354 143.549518 17.377089 C 142.638111 17.954673 141.230374 18.243465 139.326306 18.243465 C 137.422238 18.243465 136.095754 17.817619 135.345874 16.966907 C 134.596974 16.126964 134.222034 14.769153 134.222034 12.896412 L 134.222034 7.108829 L 132.825065 7.108829 C 132.592074 7.108829 132.424672 7.062818 132.322861 6.971775 C 132.222029 6.880732 132.151544 6.678089 132.110428 6.363844 C 132.07029 6.060368 132.049732 5.554248 132.049732 4.845485 C 132.049732 4.135742 132.075185 3.629622 132.126091 3.326146 C 132.166228 3.02267 132.231818 2.824921 132.322861 2.733878 C 132.414883 2.642836 132.581305 2.587035 132.825065 2.566477 L 134.464815 2.445087 L 134.464815 -0.881403 C 134.464815 -1.144742 134.531384 -1.332701 134.662564 -1.443323 C 134.783954 -1.545135 135.02184 -1.615619 135.376222 -1.656735 C 135.730604 -1.696873 136.33364 -1.717431 137.184352 -1.717431 C 138.035064 -1.717431 138.637122 -1.696873 138.991503 -1.656735 C 139.336096 -1.615619 139.573982 -1.545135 139.706141 -1.443323 C 139.827531 -1.332701 139.888226 -1.144742 139.888226 -0.881403 L 139.888226 2.445087 L 143.214716 2.445087 C 143.549518 2.445087 143.761952 2.576267 143.852995 2.839605 C 143.944037 3.113713 143.990048 3.761781 143.990048 4.784789 C 143.990048 5.806819 143.944037 6.449992 143.852995 6.713331 C 143.761952 6.97667 143.549518 7.108829 143.214716 7.108829 Z M 143.214716 7.108829 " stroke="#808080" stroke-width="0.42787" stroke-opacity="1" stroke-miterlimit="4"/><g fill="#490375" fill-opacity="1"><g transform="translate(261.874875, 140.69649)"><g><path d="M 66.921875 -82.5625 C 70.679688 -82.5625 73.390625 -82.457031 75.046875 -82.25 C 76.660156 -82.007812 77.726562 -81.648438 78.25 -81.171875 C 78.738281 -80.679688 78.984375 -79.847656 78.984375 -78.671875 L 78.984375 -3.578125 C 78.984375 -2.398438 78.71875 -1.570312 78.1875 -1.09375 C 77.664062 -0.601562 76.492188 -0.238281 74.671875 0 C 72.816406 0.238281 69.804688 0.359375 65.640625 0.359375 C 61.484375 0.359375 58.65625 0.117188 57.15625 -0.359375 C 55.625 -0.804688 54.535156 -1.632812 53.890625 -2.84375 L 31.03125 -42.734375 L 31.03125 -3.453125 C 31.03125 -2.285156 30.789062 -1.457031 30.3125 -0.96875 C 29.78125 -0.488281 28.707031 -0.144531 27.09375 0.0625 C 25.4375 0.257812 22.726562 0.359375 18.96875 0.359375 C 15.207031 0.359375 12.519531 0.238281 10.90625 0 C 9.25 -0.195312 8.179688 -0.539062 7.703125 -1.03125 C 7.210938 -1.476562 6.96875 -2.285156 6.96875 -3.453125 L 6.96875 -78.5625 C 6.96875 -79.726562 7.234375 -80.578125 7.765625 -81.109375 C 8.242188 -81.585938 9.414062 -81.945312 11.28125 -82.1875 C 13.09375 -82.4375 16.082031 -82.5625 20.25 -82.5625 C 24.40625 -82.5625 27.253906 -82.335938 28.796875 -81.890625 C 30.285156 -81.410156 31.351562 -80.5625 32 -79.34375 L 54.859375 -39.34375 L 54.859375 -78.671875 C 54.859375 -79.847656 55.117188 -80.679688 55.640625 -81.171875 C 56.128906 -81.648438 57.203125 -82.007812 58.859375 -82.25 C 60.472656 -82.457031 63.160156 -82.5625 66.921875 -82.5625 Z M 66.921875 -82.5625 "/></g></g></g><g fill="#490375" fill-opacity="1"><g transform="translate(343.416257, 140.69649)"><g><path d="M 35.15625 -63.28125 C 45.820312 -63.28125 53.601562 -60.675781 58.5 -55.46875 C 63.34375 -50.25 65.765625 -42.101562 65.765625 -31.03125 C 65.765625 -19.957031 63.34375 -11.816406 58.5 -6.609375 C 53.601562 -1.390625 45.820312 1.21875 35.15625 1.21875 C 24.488281 1.21875 16.707031 -1.410156 11.8125 -6.671875 C 6.925781 -11.878906 4.484375 -20 4.484375 -31.03125 C 4.484375 -42.0625 6.925781 -50.207031 11.8125 -55.46875 C 16.707031 -60.675781 24.488281 -63.28125 35.15625 -63.28125 Z M 35.15625 -16.90625 C 38.144531 -16.90625 40.1875 -17.957031 41.28125 -20.0625 C 42.332031 -22.125 42.859375 -25.78125 42.859375 -31.03125 C 42.859375 -36.289062 42.332031 -39.96875 41.28125 -42.0625 C 40.1875 -44.125 38.144531 -45.15625 35.15625 -45.15625 C 32.164062 -45.15625 30.144531 -44.125 29.09375 -42.0625 C 28 -39.96875 27.453125 -36.289062 27.453125 -31.03125 C 27.453125 -25.78125 28 -22.125 29.09375 -20.0625 C 30.144531 -17.957031 32.164062 -16.90625 35.15625 -16.90625 Z M 35.15625 -16.90625 "/></g></g></g><g fill="#490375" fill-opacity="1"><g transform="translate(409.319746, 140.69649)"><g><path d="M 28.546875 -82.671875 L 28.546875 -55.640625 C 32.140625 -60.734375 37.78125 -63.28125 45.46875 -63.28125 C 53.1875 -63.28125 59.003906 -60.753906 62.921875 -55.703125 C 66.835938 -50.648438 68.796875 -42.425781 68.796875 -31.03125 C 68.796875 -19.632812 66.835938 -11.410156 62.921875 -6.359375 C 59.003906 -1.304688 53.1875 1.21875 45.46875 1.21875 C 37.625 1.21875 31.863281 -1.429688 28.1875 -6.734375 L 28.0625 -3.21875 C 28.019531 -2.164062 27.78125 -1.414062 27.34375 -0.96875 C 26.894531 -0.519531 25.921875 -0.195312 24.421875 0 C 22.890625 0.238281 20.425781 0.359375 17.03125 0.359375 C 13.59375 0.359375 11.128906 0.257812 9.640625 0.0625 C 8.097656 -0.144531 7.109375 -0.488281 6.671875 -0.96875 C 6.179688 -1.414062 5.9375 -2.164062 5.9375 -3.21875 L 5.9375 -82.671875 C 5.9375 -83.722656 6.179688 -84.492188 6.671875 -84.984375 C 7.148438 -85.429688 8.160156 -85.753906 9.703125 -85.953125 C 11.234375 -86.148438 13.757812 -86.25 17.28125 -86.25 C 20.789062 -86.25 23.316406 -86.148438 24.859375 -85.953125 C 26.390625 -85.753906 27.398438 -85.429688 27.890625 -84.984375 C 28.328125 -84.535156 28.546875 -83.765625 28.546875 -82.671875 Z M 28.546875 -31.03125 C 28.546875 -25.9375 29.210938 -22.363281 30.546875 -20.3125 C 31.835938 -18.207031 34.140625 -17.15625 37.453125 -17.15625 C 40.484375 -17.15625 42.628906 -18.207031 43.890625 -20.3125 C 45.097656 -22.363281 45.703125 -25.9375 45.703125 -31.03125 C 45.703125 -36.125 45.097656 -39.722656 43.890625 -41.828125 C 42.628906 -43.890625 40.484375 -44.921875 37.453125 -44.921875 C 34.140625 -44.921875 31.835938 -43.890625 30.546875 -41.828125 C 29.210938 -39.722656 28.546875 -36.125 28.546875 -31.03125 Z M 28.546875 -31.03125 "/></g></g></g><g fill="#490375" fill-opacity="1"><g transform="translate(478.43564, 140.69649)"><g><path d="M 30.90625 -19.09375 L 31.515625 -19.09375 C 32.609375 -19.09375 33.398438 -18.890625 33.890625 -18.484375 C 34.328125 -18.078125 34.671875 -17.207031 34.921875 -15.875 C 35.160156 -14.507812 35.28125 -12.367188 35.28125 -9.453125 C 35.28125 -5.328125 34.976562 -2.679688 34.375 -1.515625 C 33.757812 -0.335938 32.40625 0.25 30.3125 0.25 L 23.34375 0.25 C 16.507812 0.25 11.898438 -0.960938 9.515625 -3.390625 C 7.128906 -5.773438 5.9375 -10.441406 5.9375 -17.390625 L 5.9375 -82.671875 C 5.9375 -83.722656 6.179688 -84.492188 6.671875 -84.984375 C 7.148438 -85.429688 8.160156 -85.753906 9.703125 -85.953125 C 11.234375 -86.148438 13.757812 -86.25 17.28125 -86.25 C 20.789062 -86.25 23.316406 -86.148438 24.859375 -85.953125 C 26.390625 -85.753906 27.398438 -85.429688 27.890625 -84.984375 C 28.328125 -84.535156 28.546875 -83.765625 28.546875 -82.671875 L 28.546875 -21.703125 C 28.546875 -20.691406 28.726562 -20.003906 29.09375 -19.640625 C 29.414062 -19.273438 30.019531 -19.09375 30.90625 -19.09375 Z M 30.90625 -19.09375 "/></g></g></g><g fill="#490375" fill-opacity="1"><g transform="translate(511.305561, 140.69649)"><g><path d="M 59.828125 -26.3125 L 26.90625 -26.3125 C 27.195312 -22.3125 28.046875 -19.539062 29.453125 -18 C 30.828125 -16.425781 32.972656 -15.640625 35.890625 -15.640625 C 37.703125 -15.640625 39.113281 -15.941406 40.125 -16.546875 C 41.09375 -17.109375 41.617188 -17.875 41.703125 -18.84375 C 41.785156 -19.9375 41.988281 -20.6875 42.3125 -21.09375 C 42.59375 -21.5 43.421875 -21.820312 44.796875 -22.0625 C 46.128906 -22.257812 48.410156 -22.359375 51.640625 -22.359375 C 53.828125 -22.359375 55.484375 -22.34375 56.609375 -22.3125 C 57.742188 -22.226562 58.773438 -22.125 59.703125 -22 C 60.628906 -21.84375 61.253906 -21.582031 61.578125 -21.21875 C 61.910156 -20.8125 62.15625 -20.347656 62.3125 -19.828125 C 62.476562 -19.296875 62.5625 -18.566406 62.5625 -17.640625 C 62.5625 -15.253906 62.070312 -12.988281 61.09375 -10.84375 C 60.082031 -8.664062 58.566406 -6.664062 56.546875 -4.84375 C 54.535156 -2.988281 51.726562 -1.515625 48.125 -0.421875 C 44.53125 0.671875 40.367188 1.21875 35.640625 1.21875 C 25.054688 1.21875 17.21875 -1.410156 12.125 -6.671875 C 7.03125 -11.921875 4.484375 -20.039062 4.484375 -31.03125 C 4.484375 -42.101562 6.925781 -50.25 11.8125 -55.46875 C 16.664062 -60.675781 24.40625 -63.28125 35.03125 -63.28125 C 44.570312 -63.28125 51.707031 -60.753906 56.4375 -55.703125 C 61.125 -50.648438 63.46875 -43.617188 63.46875 -34.609375 L 63.46875 -31.890625 C 63.46875 -29.703125 63.242188 -28.222656 62.796875 -27.453125 C 62.347656 -26.691406 61.359375 -26.3125 59.828125 -26.3125 Z M 35.40625 -46.4375 C 32.695312 -46.4375 30.710938 -45.726562 29.453125 -44.3125 C 28.160156 -42.851562 27.351562 -40.566406 27.03125 -37.453125 L 42.0625 -37.453125 L 42.0625 -38.859375 C 42.0625 -41.273438 41.597656 -43.148438 40.671875 -44.484375 C 39.742188 -45.785156 37.988281 -46.4375 35.40625 -46.4375 Z M 35.40625 -46.4375 "/></g></g></g><g fill="#490375" fill-opacity="1"><g transform="translate(574.602688, 140.69649)"><g><path d="M 32.421875 -28.796875 L 31.03125 -28.796875 L 31.03125 -3.453125 C 31.03125 -2.285156 30.789062 -1.457031 30.3125 -0.96875 C 29.78125 -0.488281 28.707031 -0.144531 27.09375 0.0625 C 25.4375 0.257812 22.726562 0.359375 18.96875 0.359375 C 15.207031 0.359375 12.519531 0.238281 10.90625 0 C 9.25 -0.195312 8.179688 -0.539062 7.703125 -1.03125 C 7.210938 -1.476562 6.96875 -2.285156 6.96875 -3.453125 L 6.96875 -78.3125 C 6.96875 -79.445312 7.25 -80.273438 7.8125 -80.796875 C 8.34375 -81.285156 9.476562 -81.648438 11.21875 -81.890625 C 12.914062 -82.085938 15.679688 -82.1875 19.515625 -82.1875 L 38.25 -82.1875 C 49.769531 -82.1875 58.070312 -80.046875 63.15625 -75.765625 C 68.207031 -71.441406 70.734375 -64.515625 70.734375 -54.984375 C 70.734375 -44.835938 66.65625 -37.644531 58.5 -33.40625 C 60.882812 -31.90625 62.941406 -29.960938 64.671875 -27.578125 C 68.671875 -21.878906 71.441406 -14.460938 72.984375 -5.328125 C 73.179688 -4.316406 73.238281 -3.46875 73.15625 -2.78125 C 73.082031 -2.0625 72.679688 -1.476562 71.953125 -1.03125 C 71.179688 -0.539062 69.847656 -0.195312 67.953125 0 C 66.015625 0.238281 63.304688 0.359375 59.828125 0.359375 C 56.597656 0.359375 54.210938 0.238281 52.671875 0 C 51.097656 -0.238281 50.066406 -0.582031 49.578125 -1.03125 C 49.054688 -1.476562 48.675781 -2.207031 48.4375 -3.21875 C 47.0625 -9.519531 45.019531 -15.273438 42.3125 -20.484375 C 39.40625 -25.742188 36.109375 -28.515625 32.421875 -28.796875 Z M 31.03125 -62.078125 L 31.03125 -47.640625 L 37.453125 -47.640625 C 40.804688 -47.640625 43.132812 -48.101562 44.4375 -49.03125 C 45.6875 -49.96875 46.3125 -51.910156 46.3125 -54.859375 C 46.3125 -57.441406 45.625 -59.300781 44.25 -60.4375 C 42.875 -61.53125 40.609375 -62.078125 37.453125 -62.078125 Z M 31.03125 -62.078125 "/></g></g></g><g fill="#490375" fill-opacity="1"><g transform="translate(647.18085, 140.69649)"><g/></g></g><g fill="#490375" fill-opacity="1"><g transform="translate(668.898164, 140.69649)"><g/></g></g><g fill="#490375" fill-opacity="1"><g transform="translate(690.615478, 140.69649)"><g/></g></g><g fill="#490375" fill-opacity="1"><g transform="translate(712.332793, 140.69649)"><g/></g></g><g fill="#490375" fill-opacity="1"><g transform="translate(734.050107, 140.69649)"><g/></g></g><g fill="#490375" fill-opacity="1"><g transform="translate(755.78975, 140.69649)"><g><path d="M 46.3125 -43.46875 L 33.03125 -43.46875 L 33.03125 -21.9375 C 33.03125 -20.8125 33.375 -19.945312 34.0625 -19.34375 C 34.75 -18.6875 35.679688 -18.359375 36.859375 -18.359375 C 38.515625 -18.359375 40.210938 -18.6875 41.953125 -19.34375 C 43.398438 -19.820312 44.570312 -19.695312 45.46875 -18.96875 C 46.351562 -18.238281 47.421875 -16.179688 48.671875 -12.796875 C 49.722656 -10.046875 50.25 -7.921875 50.25 -6.421875 C 50.25 -4.804688 49.378906 -3.492188 47.640625 -2.484375 C 44.003906 -0.179688 38.390625 0.96875 30.796875 0.96875 C 23.191406 0.96875 17.894531 -0.726562 14.90625 -4.125 C 11.914062 -7.476562 10.421875 -12.890625 10.421875 -20.359375 L 10.421875 -43.46875 L 4.84375 -43.46875 C 3.914062 -43.46875 3.25 -43.644531 2.84375 -44 C 2.445312 -44.363281 2.164062 -45.175781 2 -46.4375 C 1.84375 -47.644531 1.765625 -49.664062 1.765625 -52.5 C 1.765625 -55.320312 1.863281 -57.335938 2.0625 -58.546875 C 2.21875 -59.765625 2.476562 -60.554688 2.84375 -60.921875 C 3.207031 -61.285156 3.875 -61.503906 4.84375 -61.578125 L 11.390625 -62.078125 L 11.390625 -75.34375 C 11.390625 -76.394531 11.65625 -77.144531 12.1875 -77.59375 C 12.664062 -77.988281 13.613281 -78.269531 15.03125 -78.4375 C 16.445312 -78.59375 18.851562 -78.671875 22.25 -78.671875 C 25.644531 -78.671875 28.046875 -78.59375 29.453125 -78.4375 C 30.828125 -78.269531 31.78125 -77.988281 32.3125 -77.59375 C 32.789062 -77.144531 33.03125 -76.394531 33.03125 -75.34375 L 33.03125 -62.078125 L 46.3125 -62.078125 C 47.644531 -62.078125 48.492188 -61.550781 48.859375 -60.5 C 49.222656 -59.40625 49.40625 -56.816406 49.40625 -52.734375 C 49.40625 -48.648438 49.222656 -46.082031 48.859375 -45.03125 C 48.492188 -43.988281 47.644531 -43.46875 46.3125 -43.46875 Z M 46.3125 -43.46875 "/></g></g></g><g clip-path="url(#d50b5aefe5)"><g clip-path="url(#c80ce6b69b)"><path fill="#f7931a" d="M 647.457031 83.074219 L 702.84375 83.074219 L 702.84375 138.464844 L 647.457031 138.464844 Z M 647.457031 83.074219 " fill-opacity="1" fill-rule="nonzero"/></g></g><g clip-path="url(#397d74f81f)"><g clip-path="url(#4a233bd8ea)"><path fill="#f7931a" d="M 702.84375 82.3125 L 758.230469 82.3125 L 758.230469 137.699219 L 702.84375 137.699219 Z M 702.84375 82.3125 " fill-opacity="1" fill-rule="nonzero"/></g></g><g clip-path="url(#50fe05d328)"><g clip-path="url(#b3347c3329)"><path fill="#490375" d="M 211.214844 36.589844 L 229.472656 36.589844 L 229.472656 170.171875 L 211.214844 170.171875 Z M 211.214844 36.589844 " fill-opacity="1" fill-rule="nonzero"/></g></g><g clip-path="url(#a5ec9e9d5c)"><g clip-path="url(#f6f8b4af69)"><path fill="#f7931a" d="M 62.539062 36.589844 L 188.191406 36.589844 L 188.191406 162.242188 L 62.539062 162.242188 Z M 62.539062 36.589844 " fill-opacity="1" fill-rule="nonzero"/></g></g><g clip-path="url(#ff351b6a43)"><g clip-path="url(#1d80decb3f)"><path fill="#490375" d="M 5.550781 80.179688 L 89.316406 80.179688 L 89.316406 163.945312 L 5.550781 163.945312 Z M 5.550781 80.179688 " fill-opacity="1" fill-rule="nonzero"/></g></g></svg>