<svg xmlns="http://www.w3.org/2000/svg" xmlns:xlink="http://www.w3.org/1999/xlink" width="500" zoomAndPan="magnify" viewBox="0 0 375 374.999991" height="500" preserveAspectRatio="xMidYMid meet" version="1.0"><defs><filter x="0%" y="0%" width="100%" height="100%" id="f2af1bc366"><feColorMatrix values="0 0 0 0 1 0 0 0 0 1 0 0 0 0 1 0 0 0 1 0" color-interpolation-filters="sRGB"/></filter><g/><mask id="4054b1855b"><g filter="url(#f2af1bc366)"><rect x="-37.5" width="450" fill="#000000" y="-37.499999" height="449.999989" fill-opacity="0.57"/></g></mask><clipPath id="c34d8cd0dc"><path d="M 0 13 L 74 13 L 74 30 L 0 30 Z M 0 13 " clip-rule="nonzero"/></clipPath><clipPath id="a521d7f7c1"><path d="M 0 0.398438 L 63 0.398438 L 63 15 L 0 15 Z M 0 0.398438 " clip-rule="nonzero"/></clipPath><clipPath id="53e77d80d1"><path d="M 0 23 L 68 23 L 68 37 L 0 37 Z M 0 23 " clip-rule="nonzero"/></clipPath><clipPath id="5ef06e97e1"><path d="M 0 42 L 57 42 L 57 53.679688 L 0 53.679688 Z M 0 42 " clip-rule="nonzero"/></clipPath><clipPath id="b9fcbcf52e"><path d="M 0 10 L 68 10 L 68 22 L 0 22 Z M 0 10 " clip-rule="nonzero"/></clipPath><clipPath id="0bae399157"><path d="M 0 42 L 47 42 L 47 52 L 0 52 Z M 0 42 " clip-rule="nonzero"/></clipPath><clipPath id="e49f85e16a"><path d="M 0 8 L 1 8 L 1 12 L 0 12 Z M 0 8 " clip-rule="nonzero"/></clipPath><clipPath id="ea493ea236"><path d="M 0 8 L 2 8 L 2 12 L 0 12 Z M 0 8 " clip-rule="nonzero"/></clipPath><clipPath id="a5c1388792"><path d="M 73 27 L 76.953125 27 L 76.953125 31 L 73 31 Z M 73 27 " clip-rule="nonzero"/></clipPath><clipPath id="9d20674656"><rect x="0" width="78" y="0" height="54"/></clipPath><mask id="ddced40eb3"><g filter="url(#f2af1bc366)"><rect x="-37.5" width="450" fill="#000000" y="-37.499999" height="449.999989" fill-opacity="0.64"/></g></mask><clipPath id="3f8274f664"><path d="M 3 24 L 77 24 L 77 41 L 3 41 Z M 3 24 " clip-rule="nonzero"/></clipPath><clipPath id="418bccca2f"><path d="M 14 39 L 77 39 L 77 53.761719 L 14 53.761719 Z M 14 39 " clip-rule="nonzero"/></clipPath><clipPath id="7a57198e6c"><path d="M 9 17 L 77 17 L 77 32 L 9 32 Z M 9 17 " clip-rule="nonzero"/></clipPath><clipPath id="46b9480cd3"><path d="M 20 0.480469 L 77 0.480469 L 77 12 L 20 12 Z M 20 0.480469 " clip-rule="nonzero"/></clipPath><clipPath id="af09547d59"><path d="M 9 32 L 77 32 L 77 44 L 9 44 Z M 9 32 " clip-rule="nonzero"/></clipPath><clipPath id="7eeb1d2193"><path d="M 30 2 L 77 2 L 77 12 L 30 12 Z M 30 2 " clip-rule="nonzero"/></clipPath><clipPath id="e430764512"><path d="M 76 42 L 77 42 L 77 46 L 76 46 Z M 76 42 " clip-rule="nonzero"/></clipPath><clipPath id="45878485b0"><path d="M 75 42 L 77 42 L 77 46 L 75 46 Z M 75 42 " clip-rule="nonzero"/></clipPath><clipPath id="aa5f4f76dd"><path d="M 0.113281 23 L 4 23 L 4 27 L 0.113281 27 Z M 0.113281 23 " clip-rule="nonzero"/></clipPath><clipPath id="f6ee8f7e52"><rect x="0" width="77" y="0" height="54"/></clipPath><mask id="dc635aac96"><g filter="url(#f2af1bc366)"><rect x="-37.5" width="450" fill="#000000" y="-37.499999" height="449.999989" fill-opacity="0.7"/></g></mask><clipPath id="4c018b3495"><path d="M 91 8.730469 L 150 8.730469 L 150 76 L 91 76 Z M 91 8.730469 " clip-rule="nonzero"/></clipPath><clipPath id="bffd8d1814"><path d="M 174 56 L 232.953125 56 L 232.953125 124 L 174 124 Z M 174 56 " clip-rule="nonzero"/></clipPath><clipPath id="79e2b45731"><path d="M 91 104 L 150 104 L 150 171.480469 L 91 171.480469 Z M 91 104 " clip-rule="nonzero"/></clipPath><clipPath id="f4c1386a60"><rect x="0" width="237" y="0" height="175"/></clipPath><clipPath id="b92acbfacb"><path d="M 159.703125 227.875 L 221.203125 227.875 L 221.203125 289.375 L 159.703125 289.375 Z M 159.703125 227.875 " clip-rule="nonzero"/></clipPath><clipPath id="0964f5e91b"><path d="M 198.238281 242.746094 L 221.488281 242.746094 L 221.488281 270.496094 L 198.238281 270.496094 Z M 198.238281 242.746094 " clip-rule="nonzero"/></clipPath><clipPath id="ddadfdb321"><path d="M 154.183594 249.15625 L 178 249.15625 L 178 273 L 154.183594 273 Z M 154.183594 249.15625 " clip-rule="nonzero"/></clipPath><clipPath id="59b662d67c"><path d="M 154 222 L 240 222 L 240 320 L 154 320 Z M 154 222 " clip-rule="nonzero"/></clipPath><clipPath id="d407c5e7bb"><path d="M 155.613281 218.566406 L 256.148438 230.585938 L 244.484375 328.140625 L 143.949219 316.121094 Z M 155.613281 218.566406 " clip-rule="nonzero"/></clipPath><clipPath id="fc003f835e"><path d="M 256.507812 230.628906 L 155.972656 218.609375 L 144.3125 316.164062 L 244.847656 328.183594 Z M 256.507812 230.628906 " clip-rule="nonzero"/></clipPath><clipPath id="6b1b26fd5f"><path d="M 172 232 L 211 232 L 211 246 L 172 246 Z M 172 232 " clip-rule="nonzero"/></clipPath><clipPath id="2e6ed90a26"><path d="M 155.613281 218.566406 L 256.148438 230.585938 L 244.484375 328.140625 L 143.949219 316.121094 Z M 155.613281 218.566406 " clip-rule="nonzero"/></clipPath><clipPath id="8d12f89a79"><path d="M 256.507812 230.628906 L 155.972656 218.609375 L 144.3125 316.164062 L 244.847656 328.183594 Z M 256.507812 230.628906 " clip-rule="nonzero"/></clipPath><clipPath id="d7a2e502fb"><path d="M 232 314 L 246 314 L 246 327 L 232 327 Z M 232 314 " clip-rule="nonzero"/></clipPath><clipPath id="028584fe5e"><path d="M 155.613281 218.566406 L 256.148438 230.585938 L 244.484375 328.140625 L 143.949219 316.121094 Z M 155.613281 218.566406 " clip-rule="nonzero"/></clipPath><clipPath id="71512838da"><path d="M 256.507812 230.628906 L 155.972656 218.609375 L 144.3125 316.164062 L 244.847656 328.183594 Z M 256.507812 230.628906 " clip-rule="nonzero"/></clipPath><clipPath id="10cb42dcf8"><path d="M 180 256.808594 L 196.414062 256.808594 L 196.414062 267.308594 L 180 267.308594 Z M 180 256.808594 " clip-rule="nonzero"/></clipPath><clipPath id="b060039a2d"><path d="M 131 270 L 161 270 L 161 296 L 131 296 Z M 131 270 " clip-rule="nonzero"/></clipPath><clipPath id="459aed2442"><path d="M 160.96875 283.722656 L 136.546875 302.40625 L 126.519531 289.304688 L 150.941406 270.621094 Z M 160.96875 283.722656 " clip-rule="nonzero"/></clipPath><clipPath id="91b0bfaec4"><path d="M 160.96875 283.722656 L 136.546875 302.40625 L 126.519531 289.304688 L 150.941406 270.621094 Z M 160.96875 283.722656 " clip-rule="nonzero"/></clipPath><clipPath id="a8ab8e03b3"><path d="M 160.96875 283.722656 L 136.546875 302.40625 L 126.519531 289.304688 L 150.941406 270.621094 Z M 160.96875 283.722656 " clip-rule="nonzero"/></clipPath><clipPath id="8189b02f2f"><path d="M 82 330 L 84 330 L 84 331.546875 L 82 331.546875 Z M 82 330 " clip-rule="nonzero"/></clipPath><clipPath id="6524abf174"><path d="M 44.355469 318 L 46 318 L 46 321 L 44.355469 321 Z M 44.355469 318 " clip-rule="nonzero"/></clipPath><clipPath id="0840a9b8ad"><path d="M 51 330 L 54 330 L 54 331.546875 L 51 331.546875 Z M 51 330 " clip-rule="nonzero"/></clipPath><clipPath id="1615e290b0"><path d="M 56 330 L 58 330 L 58 331.546875 L 56 331.546875 Z M 56 330 " clip-rule="nonzero"/></clipPath><clipPath id="f89b27f36b"><path d="M 47 330 L 50 330 L 50 331.546875 L 47 331.546875 Z M 47 330 " clip-rule="nonzero"/></clipPath><clipPath id="d12180503a"><path d="M 44.355469 322 L 46 322 L 46 325 L 44.355469 325 Z M 44.355469 322 " clip-rule="nonzero"/></clipPath><clipPath id="d9548a6a2b"><path d="M 44.355469 327 L 46 327 L 46 329 L 44.355469 329 Z M 44.355469 327 " clip-rule="nonzero"/></clipPath><clipPath id="4f68243b47"><path d="M 65 330 L 67 330 L 67 331.546875 L 65 331.546875 Z M 65 330 " clip-rule="nonzero"/></clipPath><clipPath id="852d19ce80"><path d="M 73 330 L 76 330 L 76 331.546875 L 73 331.546875 Z M 73 330 " clip-rule="nonzero"/></clipPath><clipPath id="6c1d158db6"><path d="M 78 330 L 80 330 L 80 331.546875 L 78 331.546875 Z M 78 330 " clip-rule="nonzero"/></clipPath><clipPath id="0fb57b9127"><path d="M 60 330 L 63 330 L 63 331.546875 L 60 331.546875 Z M 60 330 " clip-rule="nonzero"/></clipPath><clipPath id="4731b3de1c"><path d="M 69 330 L 71 330 L 71 331.546875 L 69 331.546875 Z M 69 330 " clip-rule="nonzero"/></clipPath><clipPath id="6c80345c68"><path d="M 93 298.546875 L 95 298.546875 L 95 300 L 93 300 Z M 93 298.546875 " clip-rule="nonzero"/></clipPath><clipPath id="a9760325ec"><path d="M 106 298.546875 L 108 298.546875 L 108 300 L 106 300 Z M 106 298.546875 " clip-rule="nonzero"/></clipPath><clipPath id="cb9c8143ff"><path d="M 110 298.546875 L 113 298.546875 L 113 300 L 110 300 Z M 110 298.546875 " clip-rule="nonzero"/></clipPath><clipPath id="c531ffa77a"><path d="M 119 298.546875 L 121 298.546875 L 121 300 L 119 300 Z M 119 298.546875 " clip-rule="nonzero"/></clipPath><clipPath id="d19e96ead4"><path d="M 131 301 L 132.855469 301 L 132.855469 303 L 131 303 Z M 131 301 " clip-rule="nonzero"/></clipPath><clipPath id="32f6674783"><path d="M 128 298.546875 L 130 298.546875 L 130 301 L 128 301 Z M 128 298.546875 " clip-rule="nonzero"/></clipPath><clipPath id="225c5a4a23"><path d="M 123 298.546875 L 126 298.546875 L 126 300 L 123 300 Z M 123 298.546875 " clip-rule="nonzero"/></clipPath><clipPath id="8cee951c8c"><path d="M 115 298.546875 L 117 298.546875 L 117 300 L 115 300 Z M 115 298.546875 " clip-rule="nonzero"/></clipPath><clipPath id="d8642e4a4e"><path d="M 131 305 L 132.855469 305 L 132.855469 308 L 131 308 Z M 131 305 " clip-rule="nonzero"/></clipPath><clipPath id="822e0c8252"><path d="M 131 309 L 132.855469 309 L 132.855469 312 L 131 312 Z M 131 309 " clip-rule="nonzero"/></clipPath><clipPath id="3d7934c930"><path d="M 101 298.546875 L 104 298.546875 L 104 300 L 101 300 Z M 101 298.546875 " clip-rule="nonzero"/></clipPath><clipPath id="dd8b19cd7d"><path d="M 97 298.546875 L 100 298.546875 L 100 300 L 97 300 Z M 97 298.546875 " clip-rule="nonzero"/></clipPath><clipPath id="1db0ea26fb"><path d="M 87 314 L 132.855469 314 L 132.855469 331.546875 L 87 331.546875 Z M 87 314 " clip-rule="nonzero"/></clipPath><clipPath id="d25eff29d8"><path d="M 44.355469 298.546875 L 90 298.546875 L 90 316 L 44.355469 316 Z M 44.355469 298.546875 " clip-rule="nonzero"/></clipPath><clipPath id="d04e3f2db6"><path d="M 20.25 9.984375 L 44.804688 9.984375 L 44.804688 34.539062 L 20.25 34.539062 Z M 20.25 9.984375 " clip-rule="nonzero"/></clipPath><clipPath id="9739940767"><path d="M 32.527344 9.984375 C 25.746094 9.984375 20.25 15.480469 20.25 22.261719 C 20.25 29.042969 25.746094 34.539062 32.527344 34.539062 C 39.308594 34.539062 44.804688 29.042969 44.804688 22.261719 C 44.804688 15.480469 39.308594 9.984375 32.527344 9.984375 Z M 32.527344 9.984375 " clip-rule="nonzero"/></clipPath><clipPath id="2f138d6b62"><path d="M 9.113281 18.503906 L 25.484375 18.503906 L 25.484375 34.875 L 9.113281 34.875 Z M 9.113281 18.503906 " clip-rule="nonzero"/></clipPath><clipPath id="3fc1a9f692"><path d="M 17.296875 18.503906 C 12.777344 18.503906 9.113281 22.167969 9.113281 26.6875 C 9.113281 31.210938 12.777344 34.875 17.296875 34.875 C 21.816406 34.875 25.484375 31.210938 25.484375 26.6875 C 25.484375 22.167969 21.816406 18.503906 17.296875 18.503906 Z M 17.296875 18.503906 " clip-rule="nonzero"/></clipPath></defs><rect x="-37.5" width="450" fill="#ffffff" y="-37.499999" height="449.999989" fill-opacity="1"/><rect x="-37.5" width="450" fill="#360057" y="-37.499999" height="449.999989" fill-opacity="1"/><g mask="url(#4054b1855b)"><g transform="matrix(1, 0, 0, 1, 0, 188)"><g clip-path="url(#9d20674656)"><g clip-path="url(#c34d8cd0dc)"><path fill="#c06ef2" d="M -70.046875 13.722656 L -13.636719 13.722656 L -13.503906 13.949219 L -5.167969 28.386719 L 73.953125 28.386719 L 73.953125 29.292969 L -5.6875 29.292969 L -5.820312 29.066406 L -14.15625 14.628906 L -70.046875 14.628906 Z M -70.046875 13.722656 " fill-opacity="1" fill-rule="nonzero"/></g><g clip-path="url(#a521d7f7c1)"><path fill="#c06ef2" d="M -61.214844 7.386719 L -12.34375 7.386719 L -8.5 0.726562 L -8.367188 0.5 L 9.457031 0.5 L 9.589844 0.726562 L 17.011719 13.578125 L 62.519531 13.578125 L 62.519531 14.484375 L 16.488281 14.484375 L 16.359375 14.257812 L 8.9375 1.402344 L -7.847656 1.402344 L -11.691406 8.0625 L -11.824219 8.292969 L -61.214844 8.292969 Z M -61.214844 7.386719 " fill-opacity="1" fill-rule="nonzero"/></g><g clip-path="url(#53e77d80d1)"><path fill="#c06ef2" d="M -62.914062 23.007812 L -19.410156 23.007812 L -19.277344 23.234375 L -11.855469 36.09375 L 67.726562 36.09375 L 67.726562 36.996094 L -12.375 36.996094 L -12.503906 36.769531 L -19.929688 23.914062 L -62.914062 23.914062 Z M -62.914062 23.007812 " fill-opacity="1" fill-rule="nonzero"/></g><g clip-path="url(#5ef06e97e1)"><path fill="#c06ef2" d="M -61.554688 52.554688 L -20.582031 52.554688 L -13.71875 42.894531 L -13.585938 42.707031 L 56.40625 42.707031 L 56.40625 43.613281 L -13.121094 43.613281 L -19.980469 53.269531 L -20.117188 53.460938 L -61.554688 53.460938 Z M -61.554688 52.554688 " fill-opacity="1" fill-rule="nonzero"/></g><g clip-path="url(#b9fcbcf52e)"><path fill="#c06ef2" d="M 0.644531 10.78125 L 6.554688 21.011719 L 67.726562 21.011719 L 67.726562 21.917969 L 6.03125 21.917969 L 5.902344 21.691406 L -0.136719 11.234375 Z M 0.644531 10.78125 " fill-opacity="1" fill-rule="nonzero"/></g><g clip-path="url(#0bae399157)"><path fill="#c06ef2" d="M -1.253906 42.933594 L 3.285156 50.796875 L 46.558594 50.796875 L 46.558594 51.699219 L 2.769531 51.699219 L 2.636719 51.472656 L -2.035156 43.382812 Z M -1.253906 42.933594 " fill-opacity="1" fill-rule="nonzero"/></g><path fill="#c06ef2" d="M 12.976562 7.039062 L 44.40625 7.039062 L 44.40625 7.945312 L 12.976562 7.945312 Z M 12.976562 7.039062 " fill-opacity="1" fill-rule="nonzero"/><g clip-path="url(#e49f85e16a)"><path fill="#c06ef2" d="M -0.382812 11.175781 C 0.320312 11.175781 0.890625 10.605469 0.890625 9.90625 C 0.890625 9.203125 0.320312 8.632812 -0.382812 8.632812 C -1.082031 8.632812 -1.65625 9.203125 -1.65625 9.90625 C -1.65625 10.605469 -1.082031 11.175781 -0.382812 11.175781 Z M -0.382812 11.175781 " fill-opacity="1" fill-rule="evenodd"/></g><g clip-path="url(#ea493ea236)"><path fill="#c06ef2" d="M -0.382812 10.726562 C -0.15625 10.726562 0.0507812 10.632812 0.199219 10.488281 L 0.203125 10.484375 C 0.347656 10.335938 0.441406 10.132812 0.441406 9.90625 C 0.441406 9.679688 0.347656 9.472656 0.199219 9.324219 C 0.0507812 9.175781 -0.152344 9.082031 -0.382812 9.082031 C -0.609375 9.082031 -0.8125 9.175781 -0.964844 9.324219 C -1.109375 9.472656 -1.203125 9.675781 -1.203125 9.90625 C -1.203125 10.132812 -1.109375 10.335938 -0.964844 10.484375 L -0.960938 10.484375 C -0.8125 10.632812 -0.609375 10.726562 -0.382812 10.726562 Z M 0.839844 11.125 L 0.835938 11.125 C 0.523438 11.4375 0.09375 11.632812 -0.382812 11.632812 C -0.859375 11.632812 -1.289062 11.4375 -1.601562 11.125 C -1.914062 10.8125 -2.109375 10.378906 -2.109375 9.90625 C -2.109375 9.429688 -1.914062 8.996094 -1.601562 8.683594 C -1.289062 8.371094 -0.859375 8.179688 -0.382812 8.179688 C 0.09375 8.179688 0.523438 8.371094 0.835938 8.683594 L 0.839844 8.683594 C 1.152344 8.996094 1.34375 9.425781 1.34375 9.90625 C 1.34375 10.378906 1.152344 10.808594 0.839844 11.125 Z M 0.839844 11.125 " fill-opacity="1" fill-rule="nonzero"/></g><path fill="#c06ef2" d="M 45.679688 8.3125 C 45.90625 8.3125 46.113281 8.222656 46.261719 8.074219 C 46.410156 7.925781 46.5 7.71875 46.5 7.492188 C 46.5 7.265625 46.410156 7.058594 46.261719 6.910156 C 46.113281 6.761719 45.90625 6.671875 45.679688 6.671875 C 45.453125 6.671875 45.246094 6.761719 45.097656 6.910156 C 44.949219 7.058594 44.859375 7.265625 44.859375 7.492188 C 44.859375 7.71875 44.949219 7.925781 45.097656 8.074219 L 45.101562 8.074219 C 45.25 8.222656 45.453125 8.3125 45.679688 8.3125 Z M 46.902344 8.710938 L 46.898438 8.714844 C 46.585938 9.027344 46.15625 9.21875 45.679688 9.21875 C 45.203125 9.21875 44.769531 9.023438 44.457031 8.714844 L 44.460938 8.710938 C 44.148438 8.398438 43.953125 7.96875 43.953125 7.492188 C 43.953125 7.015625 44.148438 6.585938 44.457031 6.273438 L 44.460938 6.269531 C 44.773438 5.957031 45.203125 5.765625 45.679688 5.765625 C 46.15625 5.765625 46.585938 5.957031 46.902344 6.269531 C 47.214844 6.582031 47.40625 7.015625 47.40625 7.492188 C 47.40625 7.964844 47.214844 8.398438 46.902344 8.710938 Z M 46.902344 8.710938 " fill-opacity="1" fill-rule="nonzero"/><path fill="#c06ef2" d="M 63.792969 15.304688 C 64.496094 15.304688 65.066406 14.730469 65.066406 14.03125 C 65.066406 13.328125 64.496094 12.757812 63.792969 12.757812 C 63.09375 12.757812 62.519531 13.328125 62.519531 14.03125 C 62.519531 14.730469 63.09375 15.304688 63.792969 15.304688 Z M 63.792969 15.304688 " fill-opacity="1" fill-rule="evenodd"/><path fill="#c06ef2" d="M 63.792969 14.851562 C 64.019531 14.851562 64.226562 14.761719 64.375 14.613281 L 64.375 14.609375 C 64.523438 14.464844 64.613281 14.257812 64.613281 14.03125 C 64.613281 13.804688 64.523438 13.597656 64.375 13.449219 C 64.226562 13.300781 64.019531 13.210938 63.792969 13.210938 C 63.566406 13.210938 63.359375 13.300781 63.210938 13.449219 C 63.0625 13.597656 62.972656 13.804688 62.972656 14.03125 C 62.972656 14.257812 63.0625 14.464844 63.210938 14.609375 L 63.214844 14.609375 C 63.359375 14.761719 63.566406 14.851562 63.792969 14.851562 Z M 65.015625 15.25 L 65.011719 15.25 L 65.011719 15.253906 C 64.699219 15.566406 64.269531 15.757812 63.792969 15.757812 C 63.316406 15.757812 62.882812 15.566406 62.570312 15.253906 L 62.574219 15.25 C 62.261719 14.9375 62.066406 14.507812 62.066406 14.03125 C 62.066406 13.554688 62.261719 13.125 62.570312 12.8125 L 62.574219 12.808594 C 62.886719 12.5 63.316406 12.304688 63.792969 12.304688 C 64.269531 12.304688 64.699219 12.5 65.011719 12.8125 L 65.015625 12.808594 C 65.328125 13.121094 65.519531 13.554688 65.519531 14.03125 C 65.519531 14.503906 65.328125 14.9375 65.015625 15.25 Z M 65.015625 15.25 " fill-opacity="1" fill-rule="nonzero"/><path fill="#c06ef2" d="M 69 22.285156 C 69.226562 22.285156 69.433594 22.195312 69.582031 22.046875 C 69.730469 21.898438 69.820312 21.691406 69.820312 21.464844 C 69.820312 21.238281 69.730469 21.03125 69.582031 20.886719 L 69.582031 20.882812 C 69.433594 20.738281 69.230469 20.644531 69 20.644531 C 68.773438 20.644531 68.566406 20.738281 68.417969 20.882812 C 68.273438 21.03125 68.179688 21.238281 68.179688 21.464844 C 68.179688 21.691406 68.273438 21.898438 68.417969 22.046875 L 68.421875 22.046875 C 68.566406 22.195312 68.773438 22.285156 69 22.285156 Z M 70.222656 22.683594 L 70.21875 22.683594 L 70.21875 22.6875 C 69.90625 23 69.476562 23.191406 69 23.191406 C 68.523438 23.191406 68.09375 23 67.78125 22.6875 L 67.78125 22.683594 C 67.46875 22.371094 67.273438 21.941406 67.273438 21.464844 C 67.273438 20.992188 67.46875 20.558594 67.78125 20.246094 C 68.09375 19.933594 68.523438 19.738281 69 19.738281 C 69.476562 19.738281 69.90625 19.933594 70.21875 20.246094 L 70.222656 20.246094 C 70.535156 20.558594 70.726562 20.988281 70.726562 21.464844 C 70.726562 21.941406 70.535156 22.371094 70.222656 22.683594 Z M 70.222656 22.683594 " fill-opacity="1" fill-rule="nonzero"/><g clip-path="url(#a5c1388792)"><path fill="#c06ef2" d="M 75.226562 30.113281 C 75.929688 30.113281 76.5 29.542969 76.5 28.839844 C 76.5 28.140625 75.929688 27.566406 75.226562 27.566406 C 74.523438 27.566406 73.953125 28.140625 73.953125 28.839844 C 73.953125 29.542969 74.527344 30.113281 75.226562 30.113281 Z M 75.226562 30.113281 " fill-opacity="1" fill-rule="evenodd"/><path fill="#c06ef2" d="M 75.226562 29.660156 C 75.453125 29.660156 75.660156 29.570312 75.808594 29.421875 C 75.957031 29.273438 76.046875 29.066406 76.046875 28.839844 C 76.046875 28.613281 75.957031 28.410156 75.808594 28.261719 L 75.808594 28.257812 C 75.660156 28.109375 75.453125 28.019531 75.226562 28.019531 C 75 28.019531 74.792969 28.109375 74.644531 28.257812 C 74.496094 28.40625 74.40625 28.613281 74.40625 28.839844 C 74.40625 29.066406 74.496094 29.273438 74.644531 29.421875 L 74.648438 29.421875 C 74.792969 29.570312 75 29.660156 75.226562 29.660156 Z M 76.449219 30.058594 L 76.445312 30.058594 C 76.132812 30.371094 75.703125 30.566406 75.226562 30.566406 C 74.75 30.566406 74.320312 30.371094 74.007812 30.058594 C 73.695312 29.746094 73.5 29.316406 73.5 28.839844 C 73.5 28.363281 73.695312 27.933594 74.007812 27.621094 L 74.007812 27.617188 C 74.320312 27.304688 74.75 27.113281 75.226562 27.113281 C 75.703125 27.113281 76.132812 27.308594 76.445312 27.621094 L 76.449219 27.617188 C 76.761719 27.929688 76.953125 28.363281 76.953125 28.839844 C 76.953125 29.316406 76.761719 29.746094 76.449219 30.058594 Z M 76.449219 30.058594 " fill-opacity="1" fill-rule="nonzero"/></g><path fill="#c06ef2" d="M 69 37.367188 C 69.226562 37.367188 69.433594 37.273438 69.582031 37.125 C 69.730469 36.976562 69.820312 36.773438 69.820312 36.542969 C 69.820312 36.320312 69.730469 36.113281 69.582031 35.964844 L 69.582031 35.960938 C 69.433594 35.816406 69.230469 35.722656 69 35.722656 C 68.773438 35.722656 68.566406 35.816406 68.417969 35.964844 C 68.273438 36.113281 68.179688 36.316406 68.179688 36.542969 C 68.179688 36.773438 68.273438 36.976562 68.417969 37.125 L 68.421875 37.125 C 68.566406 37.273438 68.773438 37.367188 69 37.367188 Z M 70.222656 37.765625 L 70.21875 37.765625 C 69.90625 38.078125 69.476562 38.269531 69 38.269531 C 68.523438 38.269531 68.09375 38.078125 67.78125 37.765625 C 67.46875 37.453125 67.273438 37.019531 67.273438 36.542969 C 67.273438 36.070312 67.46875 35.636719 67.78125 35.324219 C 68.09375 35.011719 68.523438 34.816406 69 34.816406 C 69.476562 34.816406 69.90625 35.011719 70.21875 35.324219 L 70.222656 35.324219 C 70.535156 35.636719 70.726562 36.066406 70.726562 36.542969 C 70.726562 37.019531 70.535156 37.449219 70.222656 37.765625 Z M 70.222656 37.765625 " fill-opacity="1" fill-rule="nonzero"/><path fill="#c06ef2" d="M 57.679688 43.980469 C 57.90625 43.980469 58.113281 43.886719 58.261719 43.738281 C 58.410156 43.589844 58.5 43.386719 58.5 43.15625 C 58.5 42.933594 58.410156 42.726562 58.261719 42.578125 L 58.261719 42.574219 C 58.113281 42.429688 57.90625 42.335938 57.679688 42.335938 C 57.453125 42.335938 57.246094 42.429688 57.097656 42.578125 C 56.953125 42.726562 56.859375 42.929688 56.859375 43.15625 C 56.859375 43.386719 56.949219 43.589844 57.097656 43.738281 C 57.25 43.886719 57.453125 43.980469 57.679688 43.980469 Z M 58.902344 44.378906 L 58.898438 44.378906 C 58.585938 44.691406 58.15625 44.882812 57.679688 44.882812 C 57.203125 44.882812 56.773438 44.691406 56.460938 44.378906 C 56.148438 44.066406 55.953125 43.632812 55.953125 43.15625 C 55.953125 42.683594 56.148438 42.25 56.460938 41.9375 C 56.773438 41.625 57.207031 41.429688 57.679688 41.429688 C 58.15625 41.429688 58.585938 41.625 58.898438 41.9375 L 58.902344 41.9375 C 59.214844 42.25 59.40625 42.679688 59.40625 43.15625 C 59.40625 43.632812 59.210938 44.0625 58.902344 44.378906 Z M 58.902344 44.378906 " fill-opacity="1" fill-rule="nonzero"/><path fill="#c06ef2" d="M 47.832031 52.523438 C 48.53125 52.523438 49.105469 51.949219 49.105469 51.246094 C 49.105469 50.546875 48.53125 49.972656 47.832031 49.972656 C 47.128906 49.972656 46.558594 50.546875 46.558594 51.246094 C 46.558594 51.949219 47.128906 52.523438 47.832031 52.523438 Z M 47.832031 52.523438 " fill-opacity="1" fill-rule="evenodd"/><path fill="#c06ef2" d="M 47.832031 52.066406 C 48.058594 52.066406 48.261719 51.976562 48.410156 51.828125 L 48.414062 51.828125 C 48.558594 51.679688 48.652344 51.476562 48.652344 51.246094 C 48.652344 51.019531 48.558594 50.816406 48.410156 50.667969 L 48.410156 50.664062 C 48.261719 50.515625 48.058594 50.425781 47.832031 50.425781 C 47.605469 50.425781 47.398438 50.519531 47.25 50.667969 C 47.101562 50.816406 47.011719 51.019531 47.011719 51.246094 C 47.011719 51.476562 47.101562 51.679688 47.25 51.828125 C 47.398438 51.976562 47.605469 52.066406 47.832031 52.066406 Z M 49.050781 52.464844 L 49.050781 52.46875 C 48.738281 52.78125 48.304688 52.972656 47.832031 52.972656 C 47.355469 52.972656 46.921875 52.78125 46.609375 52.46875 L 46.613281 52.46875 C 46.296875 52.152344 46.105469 51.722656 46.105469 51.246094 C 46.105469 50.773438 46.296875 50.339844 46.609375 50.027344 L 46.613281 50.027344 C 46.925781 49.714844 47.355469 49.519531 47.832031 49.519531 C 48.304688 49.519531 48.738281 49.714844 49.050781 50.027344 C 49.363281 50.339844 49.558594 50.769531 49.558594 51.246094 C 49.558594 51.722656 49.363281 52.152344 49.050781 52.464844 Z M 49.050781 52.464844 " fill-opacity="1" fill-rule="nonzero"/></g></g></g><g mask="url(#ddced40eb3)"><g transform="matrix(1, 0, 0, 1, 298, 186)"><g clip-path="url(#f6ee8f7e52)"><g clip-path="url(#3f8274f664)"><path fill="#c06ef2" d="M 147.113281 40.367188 L 90.703125 40.367188 L 90.570312 40.136719 L 82.234375 25.699219 L 3.113281 25.699219 L 3.113281 24.792969 L 82.757812 24.792969 L 82.886719 25.019531 L 91.222656 39.457031 L 147.113281 39.457031 Z M 147.113281 40.367188 " fill-opacity="1" fill-rule="nonzero"/></g><g clip-path="url(#418bccca2f)"><path fill="#c06ef2" d="M 138.28125 46.703125 L 89.410156 46.703125 L 85.566406 53.359375 L 85.4375 53.585938 L 67.609375 53.585938 L 67.476562 53.359375 L 60.058594 40.507812 L 14.546875 40.507812 L 14.546875 39.601562 L 60.578125 39.601562 L 60.707031 39.828125 L 68.128906 52.683594 L 84.914062 52.683594 L 88.761719 46.023438 L 88.890625 45.796875 L 138.28125 45.796875 Z M 138.28125 46.703125 " fill-opacity="1" fill-rule="nonzero"/></g><g clip-path="url(#7a57198e6c)"><path fill="#c06ef2" d="M 139.980469 31.078125 L 96.476562 31.078125 L 96.34375 30.851562 L 88.921875 17.996094 L 9.339844 17.996094 L 9.339844 17.089844 L 89.441406 17.089844 L 89.574219 17.316406 L 96.996094 30.171875 L 139.980469 30.171875 Z M 139.980469 31.078125 " fill-opacity="1" fill-rule="nonzero"/></g><g clip-path="url(#46b9480cd3)"><path fill="#c06ef2" d="M 138.621094 1.53125 L 97.648438 1.53125 L 90.785156 11.191406 L 90.652344 11.378906 L 20.660156 11.378906 L 20.660156 10.476562 L 90.1875 10.476562 L 97.046875 0.816406 L 97.183594 0.625 L 138.621094 0.625 Z M 138.621094 1.53125 " fill-opacity="1" fill-rule="nonzero"/></g><g clip-path="url(#af09547d59)"><path fill="#c06ef2" d="M 76.421875 43.304688 L 70.515625 33.074219 L 9.339844 33.074219 L 9.339844 32.167969 L 71.035156 32.167969 L 71.164062 32.394531 L 77.203125 42.851562 Z M 76.421875 43.304688 " fill-opacity="1" fill-rule="nonzero"/></g><g clip-path="url(#7eeb1d2193)"><path fill="#c06ef2" d="M 78.320312 11.152344 L 73.78125 3.292969 L 30.507812 3.292969 L 30.507812 2.386719 L 74.296875 2.386719 L 74.429688 2.613281 L 79.101562 10.703125 Z M 78.320312 11.152344 " fill-opacity="1" fill-rule="nonzero"/></g><path fill="#c06ef2" d="M 64.09375 47.046875 L 32.660156 47.046875 L 32.660156 46.140625 L 64.09375 46.140625 Z M 64.09375 47.046875 " fill-opacity="1" fill-rule="nonzero"/><g clip-path="url(#e430764512)"><path fill="#c06ef2" d="M 77.449219 42.910156 C 76.746094 42.910156 76.175781 43.480469 76.175781 44.179688 C 76.175781 44.882812 76.746094 45.457031 77.449219 45.457031 C 78.148438 45.457031 78.722656 44.882812 78.722656 44.179688 C 78.722656 43.480469 78.148438 42.910156 77.449219 42.910156 Z M 77.449219 42.910156 " fill-opacity="1" fill-rule="evenodd"/></g><g clip-path="url(#45878485b0)"><path fill="#c06ef2" d="M 77.449219 43.359375 C 77.222656 43.359375 77.015625 43.453125 76.867188 43.597656 L 76.867188 43.601562 C 76.71875 43.75 76.628906 43.953125 76.628906 44.183594 C 76.628906 44.410156 76.71875 44.613281 76.867188 44.761719 L 76.867188 44.765625 C 77.015625 44.910156 77.222656 45.003906 77.449219 45.003906 C 77.675781 45.003906 77.882812 44.910156 78.03125 44.765625 C 78.179688 44.613281 78.269531 44.410156 78.269531 44.183594 C 78.269531 43.957031 78.179688 43.75 78.03125 43.601562 L 78.027344 43.601562 C 77.882812 43.453125 77.675781 43.359375 77.449219 43.359375 Z M 76.226562 42.960938 L 76.230469 42.960938 C 76.542969 42.648438 76.972656 42.453125 77.449219 42.453125 C 77.925781 42.453125 78.359375 42.648438 78.671875 42.960938 L 78.667969 42.960938 C 78.980469 43.273438 79.175781 43.707031 79.175781 44.179688 C 79.175781 44.65625 78.984375 45.089844 78.671875 45.402344 L 78.667969 45.402344 C 78.355469 45.714844 77.925781 45.90625 77.449219 45.90625 C 76.972656 45.90625 76.542969 45.714844 76.230469 45.402344 L 76.226562 45.402344 C 75.914062 45.089844 75.722656 44.660156 75.722656 44.179688 C 75.722656 43.707031 75.914062 43.277344 76.226562 42.960938 Z M 76.226562 42.960938 " fill-opacity="1" fill-rule="nonzero"/></g><path fill="#c06ef2" d="M 31.386719 45.773438 C 31.160156 45.773438 30.953125 45.863281 30.804688 46.011719 L 30.804688 46.015625 C 30.65625 46.160156 30.566406 46.367188 30.566406 46.59375 C 30.566406 46.820312 30.660156 47.027344 30.804688 47.175781 C 30.953125 47.324219 31.160156 47.414062 31.386719 47.414062 C 31.617188 47.414062 31.820312 47.324219 31.96875 47.175781 C 32.117188 47.027344 32.207031 46.820312 32.207031 46.59375 C 32.207031 46.367188 32.117188 46.160156 31.96875 46.015625 C 31.820312 45.863281 31.613281 45.773438 31.386719 45.773438 Z M 30.167969 45.375 C 30.480469 45.0625 30.914062 44.867188 31.386719 44.867188 C 31.863281 44.867188 32.296875 45.0625 32.609375 45.375 C 32.917969 45.6875 33.113281 46.117188 33.113281 46.59375 C 33.113281 47.070312 32.917969 47.5 32.609375 47.8125 L 32.605469 47.816406 C 32.292969 48.128906 31.863281 48.320312 31.386719 48.320312 C 30.914062 48.320312 30.480469 48.128906 30.167969 47.816406 C 29.855469 47.503906 29.660156 47.070312 29.660156 46.59375 C 29.660156 46.121094 29.855469 45.6875 30.167969 45.375 Z M 30.167969 45.375 " fill-opacity="1" fill-rule="nonzero"/><path fill="#c06ef2" d="M 13.273438 38.78125 C 12.570312 38.78125 12 39.355469 12 40.054688 C 12 40.757812 12.570312 41.328125 13.273438 41.328125 C 13.976562 41.328125 14.546875 40.757812 14.546875 40.054688 C 14.546875 39.355469 13.976562 38.78125 13.273438 38.78125 Z M 13.273438 38.78125 " fill-opacity="1" fill-rule="evenodd"/><path fill="#c06ef2" d="M 13.273438 39.234375 C 13.046875 39.234375 12.839844 39.324219 12.691406 39.472656 L 12.691406 39.476562 C 12.542969 39.621094 12.453125 39.828125 12.453125 40.054688 C 12.453125 40.28125 12.546875 40.488281 12.691406 40.636719 C 12.839844 40.785156 13.046875 40.875 13.273438 40.875 C 13.503906 40.875 13.707031 40.785156 13.855469 40.636719 C 14.003906 40.488281 14.09375 40.28125 14.09375 40.054688 C 14.09375 39.828125 14.003906 39.621094 13.855469 39.476562 C 13.707031 39.324219 13.5 39.234375 13.273438 39.234375 Z M 12.054688 38.835938 L 12.054688 38.832031 C 12.367188 38.519531 12.800781 38.328125 13.273438 38.328125 C 13.75 38.328125 14.183594 38.519531 14.496094 38.832031 L 14.492188 38.835938 C 14.804688 39.148438 15 39.578125 15 40.054688 C 15 40.53125 14.804688 40.960938 14.496094 41.273438 L 14.492188 41.277344 C 14.179688 41.589844 13.75 41.78125 13.273438 41.78125 C 12.800781 41.78125 12.367188 41.589844 12.054688 41.273438 L 12.054688 41.277344 C 11.742188 40.964844 11.546875 40.53125 11.546875 40.054688 C 11.546875 39.582031 11.742188 39.148438 12.054688 38.835938 Z M 12.054688 38.835938 " fill-opacity="1" fill-rule="nonzero"/><path fill="#c06ef2" d="M 8.066406 31.800781 C 7.839844 31.800781 7.632812 31.890625 7.488281 32.039062 L 7.484375 32.039062 C 7.335938 32.1875 7.246094 32.394531 7.246094 32.621094 C 7.246094 32.847656 7.335938 33.054688 7.488281 33.199219 L 7.488281 33.203125 C 7.632812 33.351562 7.839844 33.441406 8.066406 33.441406 C 8.292969 33.441406 8.5 33.351562 8.648438 33.203125 C 8.796875 33.054688 8.886719 32.847656 8.886719 32.621094 C 8.886719 32.394531 8.796875 32.1875 8.648438 32.039062 L 8.644531 32.039062 C 8.5 31.890625 8.292969 31.800781 8.066406 31.800781 Z M 6.84375 31.402344 L 6.847656 31.402344 L 6.847656 31.398438 C 7.160156 31.085938 7.589844 30.894531 8.066406 30.894531 C 8.542969 30.894531 8.976562 31.085938 9.289062 31.398438 L 9.285156 31.402344 C 9.601562 31.714844 9.792969 32.144531 9.792969 32.621094 C 9.792969 33.097656 9.601562 33.527344 9.289062 33.839844 L 9.285156 33.84375 C 8.972656 34.152344 8.542969 34.347656 8.066406 34.347656 C 7.589844 34.347656 7.160156 34.152344 6.847656 33.839844 L 6.84375 33.84375 C 6.535156 33.53125 6.339844 33.097656 6.339844 32.621094 C 6.339844 32.144531 6.535156 31.714844 6.84375 31.402344 Z M 6.84375 31.402344 " fill-opacity="1" fill-rule="nonzero"/><g clip-path="url(#aa5f4f76dd)"><path fill="#c06ef2" d="M 1.839844 23.972656 C 1.136719 23.972656 0.566406 24.542969 0.566406 25.246094 C 0.566406 25.949219 1.136719 26.519531 1.839844 26.519531 C 2.542969 26.519531 3.113281 25.949219 3.113281 25.246094 C 3.113281 24.542969 2.542969 23.972656 1.839844 23.972656 Z M 1.839844 23.972656 " fill-opacity="1" fill-rule="evenodd"/><path fill="#c06ef2" d="M 1.839844 24.425781 C 1.613281 24.425781 1.40625 24.515625 1.261719 24.664062 L 1.257812 24.664062 C 1.109375 24.8125 1.019531 25.019531 1.019531 25.246094 C 1.019531 25.472656 1.109375 25.675781 1.261719 25.828125 C 1.410156 25.976562 1.613281 26.066406 1.839844 26.066406 C 2.066406 26.066406 2.273438 25.976562 2.421875 25.828125 C 2.570312 25.679688 2.660156 25.472656 2.660156 25.246094 C 2.660156 25.019531 2.570312 24.8125 2.421875 24.664062 C 2.273438 24.519531 2.066406 24.425781 1.839844 24.425781 Z M 0.617188 24.027344 L 0.621094 24.027344 C 0.933594 23.714844 1.363281 23.519531 1.839844 23.519531 C 2.316406 23.519531 2.75 23.714844 3.0625 24.027344 L 3.058594 24.027344 C 3.375 24.339844 3.566406 24.773438 3.566406 25.246094 C 3.566406 25.722656 3.375 26.152344 3.0625 26.464844 L 3.058594 26.46875 C 2.746094 26.78125 2.316406 26.972656 1.839844 26.972656 C 1.367188 26.972656 0.933594 26.777344 0.621094 26.46875 L 0.617188 26.46875 C 0.308594 26.15625 0.113281 25.726562 0.113281 25.246094 C 0.113281 24.773438 0.304688 24.339844 0.617188 24.027344 Z M 0.617188 24.027344 " fill-opacity="1" fill-rule="nonzero"/></g><path fill="#c06ef2" d="M 8.066406 16.71875 C 7.839844 16.71875 7.632812 16.8125 7.488281 16.960938 L 7.484375 16.960938 C 7.335938 17.109375 7.246094 17.3125 7.246094 17.542969 C 7.246094 17.769531 7.335938 17.972656 7.488281 18.121094 L 7.488281 18.125 C 7.632812 18.269531 7.839844 18.363281 8.066406 18.363281 C 8.292969 18.363281 8.5 18.269531 8.648438 18.125 C 8.796875 17.972656 8.886719 17.769531 8.886719 17.542969 C 8.886719 17.3125 8.796875 17.109375 8.648438 16.960938 L 8.644531 16.960938 C 8.5 16.8125 8.292969 16.71875 8.066406 16.71875 Z M 6.84375 16.320312 L 6.847656 16.320312 C 7.160156 16.007812 7.589844 15.816406 8.066406 15.816406 C 8.542969 15.816406 8.976562 16.007812 9.289062 16.320312 L 9.285156 16.320312 C 9.601562 16.632812 9.792969 17.066406 9.792969 17.542969 C 9.792969 18.015625 9.601562 18.449219 9.289062 18.761719 L 9.285156 18.761719 C 8.972656 19.074219 8.542969 19.269531 8.066406 19.269531 C 7.589844 19.269531 7.160156 19.074219 6.847656 18.761719 L 6.84375 18.761719 C 6.535156 18.449219 6.339844 18.019531 6.339844 17.542969 C 6.339844 17.066406 6.535156 16.636719 6.84375 16.320312 Z M 6.84375 16.320312 " fill-opacity="1" fill-rule="nonzero"/><path fill="#c06ef2" d="M 19.386719 10.105469 C 19.160156 10.105469 18.953125 10.199219 18.808594 10.347656 L 18.804688 10.347656 C 18.65625 10.496094 18.566406 10.699219 18.566406 10.929688 C 18.566406 11.152344 18.65625 11.359375 18.808594 11.507812 L 18.808594 11.511719 C 18.953125 11.65625 19.160156 11.75 19.386719 11.75 C 19.613281 11.75 19.820312 11.65625 19.96875 11.507812 C 20.117188 11.359375 20.207031 11.15625 20.207031 10.929688 C 20.207031 10.699219 20.117188 10.496094 19.96875 10.347656 C 19.820312 10.199219 19.613281 10.105469 19.386719 10.105469 Z M 18.164062 9.707031 L 18.167969 9.707031 C 18.480469 9.394531 18.914062 9.203125 19.386719 9.203125 C 19.863281 9.203125 20.296875 9.394531 20.609375 9.707031 C 20.921875 10.019531 21.113281 10.453125 21.113281 10.929688 C 21.113281 11.402344 20.921875 11.835938 20.609375 12.148438 L 20.605469 12.148438 C 20.292969 12.460938 19.863281 12.65625 19.386719 12.65625 C 18.910156 12.65625 18.480469 12.460938 18.167969 12.148438 L 18.164062 12.148438 C 17.855469 11.835938 17.660156 11.40625 17.660156 10.929688 C 17.660156 10.453125 17.855469 10.023438 18.164062 9.707031 Z M 18.164062 9.707031 " fill-opacity="1" fill-rule="nonzero"/><path fill="#c06ef2" d="M 29.238281 1.566406 C 28.535156 1.566406 27.964844 2.136719 27.964844 2.839844 C 27.964844 3.539062 28.535156 4.113281 29.238281 4.113281 C 29.9375 4.113281 30.507812 3.539062 30.507812 2.839844 C 30.507812 2.136719 29.9375 1.566406 29.238281 1.566406 Z M 29.238281 1.566406 " fill-opacity="1" fill-rule="evenodd"/><path fill="#c06ef2" d="M 29.238281 2.019531 C 29.007812 2.019531 28.804688 2.109375 28.65625 2.257812 C 28.507812 2.40625 28.414062 2.609375 28.414062 2.839844 C 28.414062 3.066406 28.507812 3.269531 28.65625 3.417969 L 28.65625 3.421875 C 28.804688 3.570312 29.007812 3.660156 29.238281 3.660156 C 29.464844 3.660156 29.671875 3.566406 29.816406 3.417969 C 29.964844 3.273438 30.058594 3.066406 30.058594 2.839844 C 30.058594 2.609375 29.964844 2.40625 29.820312 2.257812 L 29.816406 2.257812 C 29.667969 2.109375 29.464844 2.019531 29.238281 2.019531 Z M 28.015625 1.621094 L 28.015625 1.617188 L 28.019531 1.617188 C 28.332031 1.304688 28.761719 1.113281 29.238281 1.113281 C 29.710938 1.113281 30.144531 1.304688 30.457031 1.617188 C 30.769531 1.933594 30.964844 2.363281 30.964844 2.839844 C 30.964844 3.316406 30.769531 3.746094 30.457031 4.058594 C 30.144531 4.371094 29.710938 4.566406 29.238281 4.566406 C 28.761719 4.566406 28.328125 4.371094 28.015625 4.058594 C 27.703125 3.746094 27.511719 3.316406 27.511719 2.839844 C 27.511719 2.363281 27.703125 1.933594 28.015625 1.621094 Z M 28.015625 1.621094 " fill-opacity="1" fill-rule="nonzero"/></g></g></g><g mask="url(#dc635aac96)"><g transform="matrix(1, 0, 0, 1, 69, 123)"><g clip-path="url(#f4c1386a60)"><g clip-path="url(#4c018b3495)"><path fill="#c06ef2" d="M 121.554688 8.730469 C 120.898438 8.402344 120.242188 8.402344 119.585938 8.730469 L 92.351562 24.472656 C 92.042969 24.652344 91.796875 24.894531 91.613281 25.203125 C 91.429688 25.511719 91.335938 25.847656 91.328125 26.203125 L 91.328125 57.691406 C 91.324219 58.042969 91.414062 58.367188 91.601562 58.667969 C 91.785156 58.964844 92.035156 59.191406 92.351562 59.34375 L 119.585938 75.085938 C 119.929688 75.160156 120.269531 75.160156 120.609375 75.085938 L 121.554688 75.085938 L 148.867188 59.34375 C 149.160156 59.214844 149.402344 59.027344 149.597656 58.773438 C 149.792969 58.523438 149.917969 58.242188 149.972656 57.925781 L 149.972656 26.441406 C 149.992188 26.035156 149.902344 25.652344 149.703125 25.300781 C 149.503906 24.945312 149.226562 24.667969 148.867188 24.472656 Z M 118.484375 70.285156 L 94.871094 56.746094 L 94.871094 29.90625 L 112.816406 40.214844 L 118.484375 43.363281 Z M 120.609375 40.214844 L 116.675781 37.933594 L 97.234375 26.441406 L 120.847656 12.980469 L 144.460938 26.441406 L 124.546875 37.617188 Z M 145.878906 56.746094 L 122.261719 70.285156 L 122.261719 43.363281 L 128.402344 40.214844 L 145.878906 30.140625 Z M 145.878906 56.746094 " fill-opacity="1" fill-rule="nonzero"/></g><g clip-path="url(#bffd8d1814)"><path fill="#c06ef2" d="M 232.148438 73.195312 C 232.03125 73 231.875 72.839844 231.675781 72.726562 L 204.441406 56.980469 C 203.785156 56.65625 203.128906 56.65625 202.472656 56.980469 L 175.238281 72.726562 C 174.921875 72.878906 174.671875 73.101562 174.484375 73.402344 C 174.300781 73.703125 174.210938 74.027344 174.214844 74.378906 L 174.214844 105.863281 C 174.222656 106.222656 174.316406 106.554688 174.5 106.863281 C 174.679688 107.171875 174.925781 107.414062 175.238281 107.59375 L 202.472656 123.335938 C 202.8125 123.417969 203.15625 123.417969 203.496094 123.335938 L 204.441406 123.335938 L 231.753906 107.59375 C 232.042969 107.402344 232.273438 107.152344 232.441406 106.84375 C 232.605469 106.539062 232.691406 106.210938 232.699219 105.863281 L 232.699219 74.378906 C 232.652344 73.917969 232.46875 73.527344 232.148438 73.195312 Z M 201.449219 118.222656 L 177.835938 104.683594 L 177.835938 77.839844 L 195.390625 87.917969 L 201.214844 91.300781 Z M 203.417969 87.839844 L 199.402344 85.554688 L 180.039062 74.378906 L 203.652344 60.917969 L 227.269531 74.378906 L 206.960938 86.183594 Z M 228.683594 104.683594 L 205.070312 118.222656 L 205.070312 91.300781 L 210.894531 87.917969 L 228.683594 77.839844 Z M 228.683594 104.683594 " fill-opacity="1" fill-rule="nonzero"/></g><g clip-path="url(#79e2b45731)"><path fill="#c06ef2" d="M 121.476562 104.917969 C 121.164062 104.71875 120.824219 104.617188 120.453125 104.617188 C 120.082031 104.617188 119.742188 104.71875 119.429688 104.917969 L 92.195312 120.660156 L 91.722656 121.132812 C 91.390625 121.457031 91.234375 121.851562 91.25 122.316406 L 91.25 153.800781 C 91.242188 154.152344 91.320312 154.484375 91.488281 154.792969 C 91.660156 155.101562 91.894531 155.347656 92.195312 155.53125 L 119.429688 171.273438 C 120.113281 171.601562 120.792969 171.601562 121.476562 171.273438 L 148.710938 155.53125 C 149.011719 155.347656 149.246094 155.101562 149.417969 154.792969 C 149.585938 154.484375 149.664062 154.152344 149.65625 153.800781 L 149.65625 122.316406 C 149.675781 121.96875 149.601562 121.648438 149.429688 121.347656 C 149.257812 121.046875 149.019531 120.816406 148.710938 120.660156 Z M 118.484375 166.15625 L 94.871094 152.699219 L 94.871094 125.777344 L 118.484375 139.238281 Z M 120.453125 135.851562 L 98.492188 123.179688 L 97.152344 122.316406 L 120.769531 108.855469 L 144.382812 122.316406 L 124.230469 134.042969 Z M 145.71875 152.699219 L 122.421875 166.15625 L 122.421875 139.238281 L 128.246094 135.851562 L 145.71875 125.777344 Z M 145.71875 152.699219 " fill-opacity="1" fill-rule="nonzero"/></g><path fill="#c06ef2" d="M 65.746094 72.726562 L 38.511719 56.980469 C 37.855469 56.65625 37.199219 56.65625 36.542969 56.980469 L 9.230469 72.726562 C 8.9375 72.894531 8.703125 73.128906 8.535156 73.421875 C 8.367188 73.71875 8.28125 74.039062 8.285156 74.378906 L 8.285156 105.863281 C 8.292969 106.210938 8.378906 106.539062 8.546875 106.84375 C 8.710938 107.152344 8.941406 107.402344 9.230469 107.59375 L 36.542969 123.335938 L 37.488281 123.335938 C 37.828125 123.417969 38.171875 123.417969 38.511719 123.335938 L 65.746094 107.59375 C 66.058594 107.414062 66.304688 107.171875 66.484375 106.863281 C 66.667969 106.554688 66.761719 106.222656 66.769531 105.863281 L 66.769531 74.378906 C 66.773438 74.027344 66.683594 73.703125 66.5 73.402344 C 66.316406 73.101562 66.0625 72.878906 65.746094 72.726562 Z M 35.519531 118.222656 L 11.90625 104.683594 L 11.90625 77.839844 L 29.382812 87.917969 L 35.207031 91.300781 Z M 37.488281 87.839844 L 33.554688 85.554688 L 14.191406 74.378906 L 37.804688 60.917969 L 61.417969 74.378906 L 41.503906 85.554688 Z M 62.835938 104.683594 L 39.773438 118.222656 L 39.773438 91.300781 L 45.597656 87.917969 L 62.835938 77.839844 Z M 62.835938 104.683594 " fill-opacity="1" fill-rule="nonzero"/><path fill="#f7931a" d="M 62.835938 77.839844 L 61.261719 78.707031 L 61.339844 78.707031 Z M 62.835938 77.839844 " fill-opacity="1" fill-rule="nonzero"/><path fill="#f7931a" d="M 105.96875 48.085938 L 64.800781 72.09375 L 65.746094 72.726562 C 66.0625 72.878906 66.316406 73.101562 66.5 73.402344 C 66.683594 73.703125 66.773438 74.027344 66.769531 74.378906 L 66.769531 75.558594 L 107.9375 51.472656 C 108.132812 51.328125 108.300781 51.15625 108.433594 50.949219 C 108.5625 50.746094 108.65625 50.523438 108.707031 50.285156 C 108.757812 50.046875 108.761719 49.808594 108.722656 49.566406 C 108.683594 49.328125 108.605469 49.101562 108.480469 48.890625 C 108.359375 48.679688 108.203125 48.5 108.011719 48.347656 C 107.824219 48.195312 107.613281 48.082031 107.378906 48.007812 C 107.148438 47.933594 106.910156 47.902344 106.667969 47.917969 C 106.425781 47.929688 106.191406 47.988281 105.96875 48.085938 Z M 105.96875 48.085938 " fill-opacity="1" fill-rule="nonzero"/><path fill="#f7931a" d="M 174.136719 74.378906 C 174.132812 74.027344 174.222656 73.703125 174.40625 73.402344 C 174.59375 73.101562 174.84375 72.878906 175.160156 72.726562 L 176.574219 71.703125 L 135.882812 48.085938 C 135.648438 47.972656 135.40625 47.902344 135.148438 47.878906 C 134.890625 47.855469 134.636719 47.882812 134.386719 47.953125 C 134.140625 48.027344 133.914062 48.144531 133.710938 48.300781 C 133.503906 48.460938 133.335938 48.652344 133.203125 48.875 C 133.074219 49.097656 132.996094 49.339844 132.960938 49.597656 C 132.925781 49.855469 132.941406 50.109375 133.007812 50.359375 C 133.074219 50.609375 133.1875 50.835938 133.34375 51.042969 C 133.5 51.25 133.691406 51.417969 133.914062 51.550781 L 174.136719 75.164062 Z M 174.136719 74.378906 " fill-opacity="1" fill-rule="nonzero"/><path fill="#f7931a" d="M 142.492188 123.101562 L 143.753906 122.316406 Z M 142.492188 123.101562 " fill-opacity="1" fill-rule="nonzero"/><path fill="#f7931a" d="M 191.453125 97.285156 C 191.320312 97.058594 191.152344 96.871094 190.945312 96.714844 C 190.738281 96.558594 190.511719 96.445312 190.261719 96.378906 C 190.011719 96.3125 189.757812 96.296875 189.5 96.332031 C 189.242188 96.363281 189 96.445312 188.777344 96.574219 L 147.6875 120.1875 L 148.710938 120.742188 C 149.019531 120.898438 149.257812 121.125 149.429688 121.425781 C 149.601562 121.726562 149.675781 122.046875 149.65625 122.394531 L 149.65625 123.574219 L 190.746094 99.960938 C 190.960938 99.820312 191.144531 99.648438 191.296875 99.441406 C 191.445312 99.234375 191.554688 99.007812 191.621094 98.757812 C 191.6875 98.511719 191.703125 98.261719 191.675781 98.007812 C 191.644531 97.75 191.574219 97.511719 191.453125 97.285156 Z M 191.453125 97.285156 " fill-opacity="1" fill-rule="nonzero"/><path fill="#f7931a" d="M 52.285156 96.574219 C 52.066406 96.476562 51.832031 96.417969 51.589844 96.402344 C 51.347656 96.390625 51.109375 96.421875 50.875 96.496094 C 50.644531 96.570312 50.433594 96.683594 50.242188 96.835938 C 50.054688 96.988281 49.898438 97.167969 49.777344 97.378906 C 49.652344 97.589844 49.574219 97.816406 49.535156 98.054688 C 49.496094 98.296875 49.5 98.535156 49.550781 98.773438 C 49.601562 99.011719 49.691406 99.234375 49.824219 99.4375 C 49.957031 99.644531 50.121094 99.816406 50.320312 99.960938 L 73.933594 113.417969 L 91.488281 123.496094 L 91.488281 122.316406 C 91.46875 121.851562 91.628906 121.457031 91.957031 121.132812 L 92.429688 120.660156 L 93.453125 120.109375 L 75.664062 110.035156 Z M 52.285156 96.574219 " fill-opacity="1" fill-rule="nonzero"/><path fill="#f7931a" d="M 97.152344 122.316406 L 98.414062 123.101562 Z M 97.152344 122.316406 " fill-opacity="1" fill-rule="nonzero"/></g></g></g><g clip-path="url(#b92acbfacb)"><path fill="#360057" d="M 221.15625 258.601562 C 221.15625 259.609375 221.105469 260.613281 221.007812 261.613281 C 220.910156 262.613281 220.761719 263.609375 220.566406 264.597656 C 220.371094 265.582031 220.125 266.558594 219.832031 267.519531 C 219.539062 268.484375 219.203125 269.429688 218.816406 270.359375 C 218.433594 271.289062 218.003906 272.199219 217.527344 273.085938 C 217.054688 273.972656 216.535156 274.835938 215.976562 275.671875 C 215.417969 276.507812 214.820312 277.316406 214.179688 278.09375 C 213.542969 278.871094 212.867188 279.617188 212.15625 280.328125 C 211.445312 281.039062 210.699219 281.714844 209.921875 282.355469 C 209.144531 282.992188 208.335938 283.589844 207.5 284.148438 C 206.664062 284.710938 205.800781 285.226562 204.914062 285.699219 C 204.027344 286.175781 203.117188 286.605469 202.1875 286.988281 C 201.257812 287.375 200.3125 287.714844 199.347656 288.003906 C 198.386719 288.296875 197.410156 288.542969 196.425781 288.738281 C 195.4375 288.933594 194.441406 289.082031 193.441406 289.179688 C 192.441406 289.277344 191.4375 289.328125 190.429688 289.328125 C 189.421875 289.328125 188.417969 289.277344 187.417969 289.179688 C 186.417969 289.082031 185.421875 288.933594 184.433594 288.738281 C 183.449219 288.542969 182.472656 288.296875 181.511719 288.003906 C 180.546875 287.714844 179.601562 287.375 178.671875 286.988281 C 177.742188 286.605469 176.832031 286.175781 175.945312 285.699219 C 175.058594 285.226562 174.195312 284.710938 173.359375 284.148438 C 172.523438 283.589844 171.714844 282.992188 170.9375 282.355469 C 170.160156 281.714844 169.414062 281.039062 168.703125 280.328125 C 167.992188 279.617188 167.316406 278.871094 166.675781 278.09375 C 166.039062 277.316406 165.441406 276.507812 164.882812 275.671875 C 164.320312 274.835938 163.804688 273.972656 163.332031 273.085938 C 162.855469 272.199219 162.425781 271.289062 162.042969 270.359375 C 161.65625 269.429688 161.316406 268.484375 161.027344 267.519531 C 160.734375 266.558594 160.488281 265.582031 160.292969 264.597656 C 160.097656 263.609375 159.949219 262.613281 159.851562 261.613281 C 159.753906 260.613281 159.703125 259.609375 159.703125 258.601562 C 159.703125 257.59375 159.753906 256.589844 159.851562 255.589844 C 159.949219 254.589844 160.097656 253.59375 160.292969 252.609375 C 160.488281 251.621094 160.734375 250.644531 161.027344 249.683594 C 161.316406 248.71875 161.65625 247.773438 162.042969 246.84375 C 162.425781 245.914062 162.855469 245.003906 163.332031 244.117188 C 163.804688 243.230469 164.320312 242.367188 164.882812 241.53125 C 165.441406 240.695312 166.039062 239.886719 166.675781 239.109375 C 167.316406 238.332031 167.992188 237.585938 168.703125 236.875 C 169.414062 236.164062 170.160156 235.488281 170.9375 234.851562 C 171.714844 234.210938 172.523438 233.613281 173.359375 233.054688 C 174.195312 232.496094 175.058594 231.976562 175.945312 231.503906 C 176.832031 231.027344 177.742188 230.597656 178.671875 230.214844 C 179.601562 229.828125 180.546875 229.492188 181.511719 229.199219 C 182.472656 228.90625 183.449219 228.660156 184.433594 228.464844 C 185.421875 228.269531 186.417969 228.121094 187.417969 228.023438 C 188.417969 227.925781 189.421875 227.875 190.429688 227.875 C 191.4375 227.875 192.441406 227.925781 193.441406 228.023438 C 194.441406 228.121094 195.4375 228.269531 196.425781 228.464844 C 197.410156 228.660156 198.386719 228.90625 199.347656 229.199219 C 200.3125 229.492188 201.257812 229.828125 202.1875 230.214844 C 203.117188 230.597656 204.027344 231.027344 204.914062 231.503906 C 205.800781 231.976562 206.664062 232.496094 207.5 233.054688 C 208.335938 233.613281 209.144531 234.210938 209.921875 234.851562 C 210.699219 235.488281 211.445312 236.164062 212.15625 236.875 C 212.867188 237.585938 213.542969 238.332031 214.179688 239.109375 C 214.820312 239.886719 215.417969 240.695312 215.976562 241.53125 C 216.535156 242.367188 217.054688 243.230469 217.527344 244.117188 C 218.003906 245.003906 218.433594 245.914062 218.816406 246.84375 C 219.203125 247.773438 219.539062 248.71875 219.832031 249.683594 C 220.125 250.644531 220.371094 251.621094 220.566406 252.609375 C 220.761719 253.59375 220.910156 254.589844 221.007812 255.589844 C 221.105469 256.589844 221.15625 257.59375 221.15625 258.601562 Z M 221.15625 258.601562 " fill-opacity="1" fill-rule="nonzero"/></g><g clip-path="url(#0964f5e91b)"><path fill="#ff7300" d="M 204.304688 254.097656 L 200.941406 254.132812 C 200.125 254.140625 199.464844 254.820312 199.464844 255.660156 C 199.464844 256.496094 200.125 257.171875 200.9375 257.171875 L 218.671875 256.964844 C 219.007812 256.964844 219.277344 257.242188 219.277344 257.585938 L 219.277344 260.074219 C 219.105469 260.042969 218.929688 260.03125 218.75 260.03125 C 216.96875 260.03125 215.523438 261.476562 215.523438 263.257812 C 215.523438 265.039062 216.96875 266.484375 218.75 266.484375 C 218.929688 266.484375 219.105469 266.472656 219.277344 266.441406 L 219.277344 270.234375 C 219.277344 270.578125 219.007812 270.859375 218.671875 270.859375 L 198.847656 270.859375 C 198.511719 270.859375 198.238281 270.578125 198.238281 270.234375 L 198.238281 255.242188 C 198.238281 253.949219 199.257812 252.898438 200.519531 252.886719 L 203.476562 252.855469 C 202.972656 251.890625 202.691406 250.789062 202.691406 249.617188 C 202.691406 245.820312 205.679688 242.746094 209.367188 242.746094 C 213.050781 242.746094 216.042969 245.820312 216.042969 249.617188 C 216.042969 250.742188 215.777344 251.804688 215.3125 252.742188 L 215.480469 252.742188 C 215.484375 252.742188 215.902344 252.742188 215.902344 252.742188 C 216.238281 252.742188 216.511719 253.019531 216.511719 253.363281 L 216.511719 256.953125 L 215.492188 257.160156 L 215.492188 253.988281 L 214.507812 254 C 213.285156 255.519531 211.433594 256.488281 209.367188 256.488281 C 207.34375 256.488281 205.527344 255.5625 204.304688 254.097656 Z M 218.75 265.652344 C 217.429688 265.652344 216.355469 264.582031 216.355469 263.257812 C 216.355469 261.933594 217.429688 260.863281 218.75 260.863281 C 220.074219 260.863281 221.148438 261.933594 221.148438 263.257812 C 221.148438 264.582031 220.074219 265.652344 218.75 265.652344 Z M 209.367188 255.863281 C 212.71875 255.863281 215.433594 253.066406 215.433594 249.617188 C 215.433594 246.167969 212.71875 243.371094 209.367188 243.371094 C 206.015625 243.371094 203.296875 246.167969 203.296875 249.617188 C 203.296875 253.066406 206.015625 255.863281 209.367188 255.863281 Z M 207.640625 246.570312 L 207.640625 245.855469 C 207.640625 245.519531 207.914062 245.246094 208.25 245.246094 C 208.589844 245.246094 208.863281 245.519531 208.863281 245.855469 L 208.863281 246.46875 C 209.160156 246.449219 209.394531 246.433594 209.566406 246.425781 L 209.566406 245.855469 C 209.566406 245.519531 209.839844 245.246094 210.179688 245.246094 C 210.515625 245.246094 210.789062 245.519531 210.789062 245.855469 L 210.789062 246.445312 C 211.910156 246.59375 212.507812 247.28125 212.507812 248.070312 C 212.507812 249.089844 211.402344 249.304688 211.402344 249.304688 L 211.402344 249.34375 C 211.402344 249.34375 212.761719 249.558594 212.761719 250.832031 C 212.761719 251.675781 212.140625 252.382812 210.789062 252.511719 L 210.789062 252.964844 C 210.789062 253.300781 210.515625 253.574219 210.179688 253.574219 C 209.839844 253.574219 209.566406 253.300781 209.566406 252.964844 L 209.566406 252.519531 C 209.390625 252.511719 209.15625 252.496094 208.863281 252.476562 L 208.863281 252.964844 C 208.863281 253.300781 208.589844 253.574219 208.25 253.574219 C 207.914062 253.574219 207.640625 253.300781 207.640625 252.964844 L 207.640625 252.375 C 207.34375 252.347656 207.023438 252.320312 206.671875 252.285156 C 206.378906 252.257812 206.152344 252.011719 206.152344 251.714844 C 206.152344 251.453125 206.367188 251.238281 206.628906 251.238281 C 206.640625 251.238281 206.65625 251.242188 206.671875 251.242188 L 207.320312 251.300781 L 207.320312 247.683594 L 206.691406 247.742188 C 206.417969 247.765625 206.179688 247.566406 206.15625 247.296875 C 206.152344 247.28125 206.152344 247.265625 206.152344 247.25 C 206.152344 246.945312 206.386719 246.6875 206.691406 246.660156 C 207.035156 246.625 207.351562 246.597656 207.640625 246.570312 Z M 208.863281 248.773438 L 210.011719 248.773438 C 210.472656 248.773438 210.734375 248.507812 210.734375 248.179688 C 210.734375 247.851562 210.472656 247.589844 210.011719 247.589844 L 208.863281 247.589844 Z M 208.863281 251.398438 L 210.058594 251.398438 C 210.566406 251.398438 210.820312 251.144531 210.820312 250.765625 C 210.820312 250.386719 210.566406 250.132812 210.058594 250.132812 L 208.863281 250.132812 Z M 208.863281 251.398438 " fill-opacity="1" fill-rule="nonzero"/></g><path fill="#ffffff" d="M 175.589844 260.457031 C 175.589844 261.109375 175.527344 261.75 175.398438 262.386719 C 175.269531 263.023438 175.082031 263.644531 174.828125 264.242188 C 174.578125 264.84375 174.269531 265.414062 173.902344 265.953125 C 173.539062 266.496094 173.121094 266.996094 172.65625 267.453125 C 172.191406 267.914062 171.6875 268.324219 171.140625 268.683594 C 170.589844 269.042969 170.015625 269.351562 169.40625 269.597656 C 168.800781 269.847656 168.171875 270.035156 167.527344 270.160156 C 166.882812 270.289062 166.230469 270.351562 165.574219 270.351562 C 164.914062 270.351562 164.261719 270.289062 163.617188 270.160156 C 162.972656 270.035156 162.347656 269.847656 161.738281 269.597656 C 161.128906 269.351562 160.554688 269.042969 160.007812 268.683594 C 159.460938 268.324219 158.953125 267.914062 158.488281 267.453125 C 158.023438 266.996094 157.609375 266.496094 157.242188 265.953125 C 156.875 265.414062 156.566406 264.84375 156.316406 264.242188 C 156.066406 263.644531 155.875 263.023438 155.746094 262.386719 C 155.617188 261.75 155.554688 261.109375 155.554688 260.457031 C 155.554688 259.808594 155.617188 259.164062 155.746094 258.527344 C 155.875 257.890625 156.066406 257.273438 156.316406 256.671875 C 156.566406 256.070312 156.875 255.5 157.242188 254.960938 C 157.609375 254.421875 158.023438 253.921875 158.488281 253.460938 C 158.953125 253.003906 159.460938 252.59375 160.007812 252.230469 C 160.554688 251.871094 161.128906 251.566406 161.738281 251.316406 C 162.347656 251.070312 162.972656 250.882812 163.617188 250.753906 C 164.261719 250.628906 164.914062 250.566406 165.574219 250.566406 C 166.230469 250.566406 166.882812 250.628906 167.527344 250.753906 C 168.171875 250.882812 168.800781 251.070312 169.40625 251.316406 C 170.015625 251.566406 170.589844 251.871094 171.140625 252.230469 C 171.6875 252.59375 172.191406 253.003906 172.65625 253.460938 C 173.121094 253.921875 173.539062 254.421875 173.902344 254.960938 C 174.269531 255.5 174.578125 256.070312 174.828125 256.671875 C 175.082031 257.273438 175.269531 257.890625 175.398438 258.527344 C 175.527344 259.164062 175.589844 259.808594 175.589844 260.457031 Z M 175.589844 260.457031 " fill-opacity="1" fill-rule="nonzero"/><g clip-path="url(#ddadfdb321)"><path fill="#38a37f" d="M 174.367188 253.25 C 174.082031 252.929688 173.777344 252.621094 173.457031 252.335938 C 173.132812 252.046875 172.796875 251.773438 172.441406 251.523438 C 172.089844 251.273438 171.722656 251.042969 171.34375 250.832031 C 170.964844 250.621094 170.574219 250.433594 170.175781 250.265625 C 169.773438 250.101562 169.363281 249.957031 168.949219 249.835938 C 168.53125 249.714844 168.109375 249.617188 167.679688 249.542969 C 167.25 249.46875 166.820312 249.421875 166.386719 249.394531 C 165.949219 249.371094 165.515625 249.371094 165.082031 249.394531 C 164.648438 249.417969 164.214844 249.464844 163.789062 249.535156 C 163.359375 249.605469 162.9375 249.703125 162.519531 249.820312 C 162.101562 249.9375 161.691406 250.082031 161.289062 250.246094 C 160.886719 250.410156 160.496094 250.597656 160.117188 250.804688 C 159.734375 251.015625 159.367188 251.242188 159.015625 251.492188 C 158.660156 251.742188 158.320312 252.011719 158 252.296875 C 157.675781 252.585938 157.371094 252.890625 157.082031 253.210938 C 156.792969 253.53125 156.523438 253.867188 156.273438 254.21875 C 156.011719 254.585938 155.773438 254.964844 155.558594 255.359375 C 154.738281 256.863281 154.285156 258.46875 154.203125 260.175781 C 154.191406 260.367188 154.1875 260.5625 154.1875 260.753906 C 154.1875 261.214844 154.214844 261.671875 154.269531 262.125 C 154.328125 262.582031 154.410156 263.03125 154.519531 263.476562 C 154.632812 263.921875 154.769531 264.359375 154.933594 264.785156 C 155.097656 265.214844 155.289062 265.632812 155.503906 266.039062 C 155.71875 266.445312 155.957031 266.835938 156.222656 267.214844 C 156.484375 267.59375 156.769531 267.953125 157.078125 268.296875 C 157.386719 268.640625 157.710938 268.964844 158.058594 269.269531 C 158.40625 269.570312 158.769531 269.855469 159.152344 270.117188 C 159.535156 270.375 159.929688 270.613281 160.339844 270.828125 C 160.753906 271.042969 161.175781 271.230469 161.609375 271.394531 C 162.042969 271.554688 162.484375 271.691406 162.933594 271.804688 C 163.386719 271.914062 163.839844 271.996094 164.300781 272.054688 C 164.761719 272.109375 165.226562 272.136719 165.6875 272.140625 C 166.152344 272.140625 166.617188 272.113281 167.078125 272.058594 C 167.539062 272.003906 167.992188 271.921875 168.445312 271.816406 C 168.894531 271.707031 169.339844 271.570312 169.773438 271.410156 C 170.207031 271.25 170.628906 271.0625 171.042969 270.847656 C 171.453125 270.636719 171.851562 270.402344 172.234375 270.140625 C 172.617188 269.882812 172.980469 269.601562 173.332031 269.300781 C 173.679688 268.996094 174.007812 268.671875 174.316406 268.332031 C 174.625 267.988281 174.914062 267.628906 175.175781 267.253906 C 175.441406 266.875 175.683594 266.484375 175.898438 266.082031 C 176.117188 265.675781 176.308594 265.257812 176.476562 264.832031 C 176.640625 264.402344 176.78125 263.964844 176.894531 263.523438 C 177.007812 263.078125 177.089844 262.628906 177.148438 262.171875 C 177.207031 261.71875 177.234375 261.261719 177.238281 260.800781 C 177.238281 260.34375 177.214844 259.886719 177.160156 259.433594 C 177.105469 258.976562 177.023438 258.527344 176.914062 258.082031 C 176.804688 257.636719 176.667969 257.199219 176.507812 256.769531 C 176.34375 256.339844 176.15625 255.921875 175.941406 255.515625 C 175.726562 255.105469 175.488281 254.714844 175.226562 254.335938 C 174.964844 253.957031 174.683594 253.597656 174.375 253.25 Z M 161.863281 262.328125 C 162.835938 263.003906 163.75 263.40625 164.691406 263.558594 L 164.691406 261.753906 C 162.242188 261.199219 160.996094 260.375 160.996094 258.511719 L 160.996094 258.480469 C 160.996094 256.710938 162.304688 255.480469 164.628906 255.316406 L 164.628906 254.460938 L 166.210938 254.460938 L 166.210938 255.359375 C 167.378906 255.480469 168.445312 255.871094 169.414062 256.53125 L 168.167969 258.542969 C 167.546875 258.121094 166.867188 257.824219 166.132812 257.648438 L 166.132812 259.390625 C 168.542969 259.945312 169.765625 260.800781 169.765625 262.664062 L 169.765625 262.691406 C 169.765625 264.523438 168.335938 265.648438 166.179688 265.84375 L 166.179688 267.3125 L 164.597656 267.3125 L 164.597656 265.804688 C 163.101562 265.660156 161.734375 265.164062 160.496094 264.316406 Z M 161.863281 262.328125 " fill-opacity="1" fill-rule="nonzero"/></g><path fill="#38a37f" d="M 167.136719 262.878906 L 167.136719 262.847656 C 167.136719 262.441406 166.90625 262.21875 166.117188 261.992188 L 166.117188 263.644531 C 166.816406 263.570312 167.136719 263.3125 167.136719 262.878906 Z M 167.136719 262.878906 " fill-opacity="1" fill-rule="nonzero"/><path fill="#38a37f" d="M 164.703125 257.507812 C 163.960938 257.566406 163.671875 257.867188 163.671875 258.257812 L 163.671875 258.289062 C 163.671875 258.675781 163.886719 258.902344 164.703125 259.128906 Z M 164.703125 257.507812 " fill-opacity="1" fill-rule="nonzero"/><g clip-path="url(#59b662d67c)"><g clip-path="url(#d407c5e7bb)"><g clip-path="url(#fc003f835e)"><path fill="#ffffff" d="M 167.921875 230.480469 C 175.292969 224.683594 184.480469 222.109375 193.789062 223.222656 C 203.101562 224.335938 211.421875 229 217.222656 236.375 C 223.023438 243.742188 225.601562 252.9375 224.488281 262.25 C 223.519531 270.347656 219.851562 277.6875 214.070312 283.28125 L 219.996094 290.8125 L 221.710938 289.464844 L 239.6875 312.3125 L 230.539062 319.507812 L 212.570312 296.660156 L 214.28125 295.308594 L 208.355469 287.773438 C 201.554688 292.082031 193.558594 293.910156 185.460938 292.941406 C 176.148438 291.828125 167.828125 287.15625 162.027344 279.78125 C 150.058594 264.5625 152.703125 242.449219 167.921875 230.480469 Z M 166.242188 276.460938 C 171.15625 282.710938 178.203125 286.664062 186.101562 287.609375 C 193.988281 288.554688 201.769531 286.367188 208.019531 281.457031 C 214.261719 276.546875 218.21875 269.5 219.160156 261.609375 C 220.105469 253.722656 217.917969 245.933594 213.007812 239.691406 C 208.101562 233.445312 201.054688 229.488281 193.15625 228.546875 C 185.269531 227.601562 177.484375 229.789062 171.238281 234.699219 C 158.347656 244.84375 156.109375 263.578125 166.242188 276.460938 Z M 166.242188 276.460938 " fill-opacity="1" fill-rule="nonzero"/></g></g></g><g clip-path="url(#6b1b26fd5f)"><g clip-path="url(#2e6ed90a26)"><g clip-path="url(#8d12f89a79)"><path fill="#ffffff" d="M 192.683594 232.515625 C 199.511719 233.332031 205.609375 236.761719 209.859375 242.164062 C 210.5 242.980469 210.359375 244.164062 209.546875 244.804688 C 208.730469 245.445312 207.546875 245.300781 206.90625 244.488281 C 203.277344 239.871094 198.066406 236.949219 192.234375 236.253906 C 186.402344 235.554688 180.652344 237.167969 176.03125 240.796875 C 175.628906 241.121094 175.128906 241.242188 174.644531 241.183594 C 174.171875 241.128906 173.714844 240.890625 173.390625 240.480469 C 172.75 239.667969 172.890625 238.484375 173.707031 237.84375 C 179.113281 233.597656 185.851562 231.699219 192.683594 232.515625 Z M 192.683594 232.515625 " fill-opacity="1" fill-rule="nonzero"/></g></g></g><g clip-path="url(#d7a2e502fb)"><g clip-path="url(#028584fe5e)"><g clip-path="url(#71512838da)"><path fill="#ffffff" d="M 243.902344 317.679688 C 245.738281 320.007812 245.332031 323.386719 243 325.210938 L 242.292969 325.773438 C 239.957031 327.605469 236.585938 327.199219 234.753906 324.875 L 232.28125 321.734375 L 241.429688 314.539062 Z M 243.902344 317.679688 " fill-opacity="1" fill-rule="nonzero"/></g></g></g><g clip-path="url(#10cb42dcf8)"><path fill="#ffffff" d="M 182.578125 264.3125 L 184.28125 266.015625 L 184.320312 266.058594 C 184.351562 266.097656 184.359375 266.109375 184.386719 266.152344 C 184.65625 266.585938 184.328125 267.28125 183.753906 267.28125 C 183.5625 267.28125 183.375 267.195312 183.230469 267.0625 L 180.261719 264.097656 C 180.226562 264.058594 180.21875 264.050781 180.1875 264.007812 C 179.894531 263.605469 180.136719 262.921875 180.671875 262.839844 C 180.722656 262.832031 180.734375 262.832031 180.789062 262.828125 L 192.660156 262.828125 C 192.679688 262.832031 192.699219 262.832031 192.71875 262.832031 C 192.769531 262.835938 192.78125 262.835938 192.832031 262.847656 C 193.335938 262.96875 193.582031 263.699219 193.183594 264.097656 C 193.046875 264.234375 192.855469 264.304688 192.660156 264.3125 Z M 195.628906 261.34375 L 183.753906 261.34375 C 183.703125 261.34375 183.691406 261.34375 183.640625 261.335938 C 183.1875 261.265625 182.871094 260.703125 183.09375 260.265625 C 183.21875 260.023438 183.476562 259.871094 183.753906 259.859375 L 193.835938 259.859375 L 192.09375 258.117188 C 192.0625 258.078125 192.054688 258.066406 192.027344 258.023438 C 191.777344 257.617188 192.035156 256.980469 192.542969 256.902344 C 192.652344 256.882812 192.679688 256.894531 192.71875 256.894531 C 192.769531 256.902344 192.78125 256.902344 192.832031 256.914062 C 192.964844 256.945312 193.082031 257.015625 193.183594 257.109375 L 196.152344 260.078125 C 196.1875 260.117188 196.199219 260.125 196.230469 260.167969 C 196.464844 260.496094 196.371094 261.015625 196.015625 261.234375 C 195.933594 261.285156 195.839844 261.320312 195.742188 261.335938 C 195.691406 261.34375 195.679688 261.34375 195.628906 261.34375 Z M 195.628906 261.34375 " fill-opacity="1" fill-rule="nonzero"/></g><g clip-path="url(#b060039a2d)"><g clip-path="url(#459aed2442)"><g clip-path="url(#91b0bfaec4)"><g clip-path="url(#a8ab8e03b3)"><path fill="#ffffff" d="M 160.894531 283.78125 L 158.378906 280.496094 L 151.699219 280.417969 L 153.382812 273.960938 L 150.867188 270.675781 L 147.519531 283.636719 Z M 152.941406 289.867188 L 150.425781 286.578125 L 143.746094 286.5 L 145.429688 280.046875 L 142.914062 276.761719 L 139.566406 289.722656 Z M 144.984375 295.949219 L 142.472656 292.664062 L 135.792969 292.585938 L 137.472656 286.132812 L 134.960938 282.847656 L 131.613281 295.804688 Z M 144.984375 295.949219 " fill-opacity="1" fill-rule="nonzero"/></g></g></g></g><g clip-path="url(#8189b02f2f)"><path fill="#ffffff" d="M 83.152344 330.128906 L 83.132812 330.128906 C 82.9375 330.128906 82.769531 330.199219 82.628906 330.335938 C 82.492188 330.476562 82.421875 330.640625 82.421875 330.835938 C 82.421875 331.035156 82.492188 331.199219 82.628906 331.339844 C 82.769531 331.476562 82.9375 331.546875 83.132812 331.546875 L 83.152344 331.546875 C 83.347656 331.546875 83.515625 331.476562 83.65625 331.339844 C 83.792969 331.199219 83.863281 331.035156 83.863281 330.835938 C 83.863281 330.640625 83.792969 330.476562 83.65625 330.335938 C 83.515625 330.199219 83.347656 330.128906 83.152344 330.128906 Z M 83.152344 330.128906 " fill-opacity="1" fill-rule="nonzero"/></g><g clip-path="url(#6524abf174)"><path fill="#ffffff" d="M 45.167969 320.117188 C 45.363281 320.117188 45.53125 320.046875 45.671875 319.910156 C 45.808594 319.773438 45.878906 319.605469 45.878906 319.410156 L 45.878906 319.375 C 45.878906 319.179688 45.808594 319.011719 45.671875 318.875 C 45.53125 318.734375 45.363281 318.664062 45.167969 318.664062 C 44.96875 318.664062 44.800781 318.734375 44.664062 318.875 C 44.523438 319.011719 44.453125 319.179688 44.453125 319.375 L 44.453125 319.410156 C 44.453125 319.605469 44.523438 319.773438 44.664062 319.910156 C 44.800781 320.046875 44.96875 320.117188 45.167969 320.117188 Z M 45.167969 320.117188 " fill-opacity="1" fill-rule="nonzero"/></g><g clip-path="url(#0840a9b8ad)"><path fill="#ffffff" d="M 52.679688 330.128906 L 52.644531 330.128906 C 52.449219 330.128906 52.28125 330.199219 52.140625 330.335938 C 52.003906 330.476562 51.933594 330.640625 51.933594 330.835938 C 51.933594 331.035156 52.003906 331.199219 52.140625 331.339844 C 52.28125 331.476562 52.449219 331.546875 52.644531 331.546875 L 52.679688 331.546875 C 52.878906 331.546875 53.046875 331.476562 53.183594 331.339844 C 53.324219 331.199219 53.394531 331.035156 53.394531 330.835938 C 53.394531 330.640625 53.324219 330.476562 53.183594 330.335938 C 53.046875 330.199219 52.878906 330.128906 52.679688 330.128906 Z M 52.679688 330.128906 " fill-opacity="1" fill-rule="nonzero"/></g><g clip-path="url(#1615e290b0)"><path fill="#ffffff" d="M 57.035156 330.128906 L 57 330.128906 C 56.804688 330.128906 56.636719 330.199219 56.496094 330.335938 C 56.359375 330.476562 56.289062 330.640625 56.289062 330.835938 C 56.289062 331.035156 56.359375 331.199219 56.496094 331.339844 C 56.636719 331.476562 56.804688 331.546875 57 331.546875 L 57.035156 331.546875 C 57.234375 331.546875 57.402344 331.476562 57.539062 331.339844 C 57.679688 331.199219 57.75 331.035156 57.75 330.835938 C 57.75 330.640625 57.679688 330.476562 57.539062 330.335938 C 57.402344 330.199219 57.234375 330.128906 57.035156 330.128906 Z M 57.035156 330.128906 " fill-opacity="1" fill-rule="nonzero"/></g><g clip-path="url(#f89b27f36b)"><path fill="#ffffff" d="M 48.433594 330.097656 L 48.402344 330.09375 C 48.207031 330.0625 48.03125 330.105469 47.871094 330.222656 C 47.710938 330.339844 47.617188 330.492188 47.589844 330.6875 C 47.558594 330.882812 47.601562 331.054688 47.71875 331.214844 C 47.835938 331.371094 47.992188 331.464844 48.183594 331.496094 L 48.21875 331.5 C 48.414062 331.53125 48.589844 331.488281 48.75 331.371094 C 48.90625 331.253906 49.003906 331.101562 49.03125 330.90625 C 49.0625 330.714844 49.019531 330.539062 48.902344 330.378906 C 48.785156 330.222656 48.628906 330.128906 48.433594 330.097656 Z M 48.433594 330.097656 " fill-opacity="1" fill-rule="nonzero"/></g><g clip-path="url(#d12180503a)"><path fill="#ffffff" d="M 45.167969 324.449219 C 45.363281 324.449219 45.53125 324.378906 45.671875 324.242188 C 45.808594 324.101562 45.878906 323.9375 45.878906 323.742188 L 45.878906 323.707031 C 45.878906 323.511719 45.808594 323.34375 45.671875 323.203125 C 45.53125 323.066406 45.363281 322.996094 45.167969 322.996094 C 44.96875 322.996094 44.800781 323.066406 44.664062 323.203125 C 44.523438 323.34375 44.453125 323.511719 44.453125 323.707031 L 44.453125 323.742188 C 44.453125 323.9375 44.523438 324.101562 44.664062 324.242188 C 44.800781 324.378906 44.96875 324.449219 45.167969 324.449219 Z M 45.167969 324.449219 " fill-opacity="1" fill-rule="nonzero"/></g><g clip-path="url(#d9548a6a2b)"><path fill="#ffffff" d="M 45.964844 327.863281 C 45.917969 327.671875 45.808594 327.527344 45.640625 327.425781 C 45.472656 327.320312 45.292969 327.292969 45.101562 327.339844 C 44.910156 327.386719 44.765625 327.492188 44.660156 327.660156 C 44.558594 327.828125 44.53125 328.007812 44.578125 328.195312 L 44.585938 328.238281 C 44.636719 328.425781 44.742188 328.574219 44.914062 328.671875 C 45.082031 328.773438 45.261719 328.800781 45.453125 328.753906 C 45.644531 328.703125 45.792969 328.59375 45.890625 328.425781 C 45.992188 328.257812 46.019531 328.078125 45.96875 327.886719 Z M 45.964844 327.863281 " fill-opacity="1" fill-rule="nonzero"/></g><g clip-path="url(#4f68243b47)"><path fill="#ffffff" d="M 65.746094 330.128906 L 65.710938 330.128906 C 65.515625 330.128906 65.347656 330.199219 65.207031 330.335938 C 65.070312 330.476562 65 330.640625 65 330.835938 C 65 331.035156 65.070312 331.199219 65.207031 331.339844 C 65.347656 331.476562 65.515625 331.546875 65.710938 331.546875 L 65.746094 331.546875 C 65.945312 331.546875 66.113281 331.476562 66.25 331.339844 C 66.390625 331.199219 66.460938 331.035156 66.460938 330.835938 C 66.460938 330.640625 66.390625 330.476562 66.25 330.335938 C 66.113281 330.199219 65.945312 330.128906 65.746094 330.128906 Z M 65.746094 330.128906 " fill-opacity="1" fill-rule="nonzero"/></g><g clip-path="url(#852d19ce80)"><path fill="#ffffff" d="M 74.457031 330.128906 L 74.421875 330.128906 C 74.226562 330.128906 74.058594 330.199219 73.917969 330.335938 C 73.78125 330.476562 73.710938 330.640625 73.710938 330.835938 C 73.710938 331.035156 73.78125 331.199219 73.917969 331.339844 C 74.058594 331.476562 74.226562 331.546875 74.421875 331.546875 L 74.457031 331.546875 C 74.652344 331.546875 74.820312 331.476562 74.960938 331.339844 C 75.101562 331.199219 75.171875 331.035156 75.171875 330.835938 C 75.171875 330.640625 75.101562 330.476562 74.960938 330.335938 C 74.820312 330.199219 74.652344 330.128906 74.457031 330.128906 Z M 74.457031 330.128906 " fill-opacity="1" fill-rule="nonzero"/></g><g clip-path="url(#6c1d158db6)"><path fill="#ffffff" d="M 78.8125 330.128906 L 78.777344 330.128906 C 78.582031 330.128906 78.414062 330.199219 78.273438 330.335938 C 78.136719 330.476562 78.066406 330.640625 78.066406 330.835938 C 78.066406 331.035156 78.136719 331.199219 78.273438 331.339844 C 78.414062 331.476562 78.582031 331.546875 78.777344 331.546875 L 78.8125 331.546875 C 79.007812 331.546875 79.175781 331.476562 79.316406 331.339844 C 79.457031 331.199219 79.527344 331.035156 79.527344 330.835938 C 79.527344 330.640625 79.457031 330.476562 79.316406 330.335938 C 79.175781 330.199219 79.007812 330.128906 78.8125 330.128906 Z M 78.8125 330.128906 " fill-opacity="1" fill-rule="nonzero"/></g><g clip-path="url(#0fb57b9127)"><path fill="#ffffff" d="M 61.390625 330.128906 L 61.355469 330.128906 C 61.160156 330.128906 60.992188 330.199219 60.851562 330.335938 C 60.714844 330.476562 60.644531 330.640625 60.644531 330.835938 C 60.644531 331.035156 60.714844 331.199219 60.851562 331.339844 C 60.992188 331.476562 61.160156 331.546875 61.355469 331.546875 L 61.390625 331.546875 C 61.589844 331.546875 61.757812 331.476562 61.894531 331.339844 C 62.035156 331.199219 62.105469 331.035156 62.105469 330.835938 C 62.105469 330.640625 62.035156 330.476562 61.894531 330.335938 C 61.757812 330.199219 61.589844 330.128906 61.390625 330.128906 Z M 61.390625 330.128906 " fill-opacity="1" fill-rule="nonzero"/></g><g clip-path="url(#4731b3de1c)"><path fill="#ffffff" d="M 70.101562 330.128906 L 70.066406 330.128906 C 69.871094 330.128906 69.703125 330.199219 69.5625 330.335938 C 69.425781 330.476562 69.355469 330.640625 69.355469 330.835938 C 69.355469 331.035156 69.425781 331.199219 69.5625 331.339844 C 69.703125 331.476562 69.871094 331.546875 70.066406 331.546875 L 70.101562 331.546875 C 70.300781 331.546875 70.46875 331.476562 70.605469 331.339844 C 70.746094 331.199219 70.816406 331.035156 70.816406 330.835938 C 70.816406 330.640625 70.746094 330.476562 70.605469 330.335938 C 70.46875 330.199219 70.300781 330.128906 70.101562 330.128906 Z M 70.101562 330.128906 " fill-opacity="1" fill-rule="nonzero"/></g><g clip-path="url(#6c80345c68)"><path fill="#ffffff" d="M 93.933594 299.984375 L 93.953125 299.984375 C 94.148438 299.984375 94.316406 299.914062 94.457031 299.777344 C 94.597656 299.636719 94.664062 299.46875 94.664062 299.273438 C 94.664062 299.078125 94.597656 298.910156 94.457031 298.773438 C 94.316406 298.632812 94.148438 298.566406 93.953125 298.566406 L 93.933594 298.566406 C 93.738281 298.566406 93.570312 298.632812 93.429688 298.773438 C 93.292969 298.910156 93.222656 299.078125 93.222656 299.273438 C 93.222656 299.46875 93.292969 299.636719 93.429688 299.777344 C 93.570312 299.914062 93.738281 299.984375 93.933594 299.984375 Z M 93.933594 299.984375 " fill-opacity="1" fill-rule="nonzero"/></g><g clip-path="url(#a9760325ec)"><path fill="#ffffff" d="M 107.011719 299.984375 L 107.046875 299.984375 C 107.242188 299.984375 107.410156 299.914062 107.550781 299.777344 C 107.691406 299.636719 107.757812 299.46875 107.757812 299.273438 C 107.757812 299.078125 107.691406 298.910156 107.550781 298.773438 C 107.410156 298.632812 107.242188 298.566406 107.046875 298.566406 L 107.011719 298.566406 C 106.816406 298.566406 106.648438 298.632812 106.507812 298.773438 C 106.367188 298.910156 106.300781 299.078125 106.300781 299.273438 C 106.300781 299.46875 106.367188 299.636719 106.507812 299.777344 C 106.648438 299.914062 106.816406 299.984375 107.011719 299.984375 Z M 107.011719 299.984375 " fill-opacity="1" fill-rule="nonzero"/></g><g clip-path="url(#cb9c8143ff)"><path fill="#ffffff" d="M 111.375 299.984375 L 111.410156 299.984375 C 111.609375 299.984375 111.777344 299.914062 111.914062 299.777344 C 112.054688 299.636719 112.125 299.46875 112.125 299.273438 C 112.125 299.078125 112.054688 298.910156 111.914062 298.773438 C 111.777344 298.632812 111.609375 298.566406 111.410156 298.566406 L 111.375 298.566406 C 111.179688 298.566406 111.011719 298.632812 110.871094 298.773438 C 110.734375 298.910156 110.664062 299.078125 110.664062 299.273438 C 110.664062 299.46875 110.734375 299.636719 110.871094 299.777344 C 111.011719 299.914062 111.179688 299.984375 111.375 299.984375 Z M 111.375 299.984375 " fill-opacity="1" fill-rule="nonzero"/></g><g clip-path="url(#c531ffa77a)"><path fill="#ffffff" d="M 120.105469 299.984375 L 120.140625 299.984375 C 120.339844 299.984375 120.507812 299.914062 120.644531 299.777344 C 120.785156 299.636719 120.855469 299.46875 120.855469 299.273438 C 120.855469 299.078125 120.785156 298.910156 120.644531 298.773438 C 120.507812 298.632812 120.339844 298.566406 120.140625 298.566406 L 120.105469 298.566406 C 119.910156 298.566406 119.742188 298.632812 119.601562 298.773438 C 119.464844 298.910156 119.394531 299.078125 119.394531 299.273438 C 119.394531 299.46875 119.464844 299.636719 119.601562 299.777344 C 119.742188 299.914062 119.910156 299.984375 120.105469 299.984375 Z M 120.105469 299.984375 " fill-opacity="1" fill-rule="nonzero"/></g><g clip-path="url(#d19e96ead4)"><path fill="#ffffff" d="M 131.230469 302.226562 C 131.277344 302.414062 131.386719 302.558594 131.554688 302.660156 C 131.722656 302.761719 131.902344 302.785156 132.09375 302.738281 C 132.28125 302.691406 132.429688 302.585938 132.53125 302.417969 C 132.632812 302.253906 132.660156 302.074219 132.613281 301.886719 L 132.605469 301.84375 C 132.554688 301.65625 132.445312 301.511719 132.273438 301.414062 C 132.105469 301.3125 131.925781 301.289062 131.734375 301.335938 C 131.546875 301.386719 131.398438 301.492188 131.300781 301.664062 C 131.199219 301.832031 131.175781 302.007812 131.222656 302.199219 Z M 131.230469 302.226562 " fill-opacity="1" fill-rule="nonzero"/></g><g clip-path="url(#32f6674783)"><path fill="#ffffff" d="M 128.738281 300.007812 L 128.765625 300.011719 C 128.960938 300.042969 129.136719 299.996094 129.296875 299.878906 C 129.453125 299.761719 129.546875 299.609375 129.574219 299.414062 C 129.601562 299.21875 129.558594 299.042969 129.441406 298.886719 C 129.320312 298.730469 129.164062 298.636719 128.972656 298.609375 L 128.929688 298.605469 C 128.734375 298.578125 128.558594 298.625 128.402344 298.742188 C 128.246094 298.859375 128.15625 299.015625 128.128906 299.210938 C 128.101562 299.40625 128.148438 299.582031 128.265625 299.734375 C 128.386719 299.890625 128.542969 299.984375 128.738281 300.007812 Z M 128.738281 300.007812 " fill-opacity="1" fill-rule="nonzero"/></g><g clip-path="url(#225c5a4a23)"><path fill="#ffffff" d="M 124.472656 299.984375 L 124.507812 299.984375 C 124.703125 299.984375 124.871094 299.914062 125.011719 299.777344 C 125.148438 299.636719 125.21875 299.46875 125.21875 299.273438 C 125.21875 299.078125 125.148438 298.910156 125.011719 298.773438 C 124.871094 298.632812 124.703125 298.566406 124.507812 298.566406 L 124.472656 298.566406 C 124.273438 298.566406 124.105469 298.632812 123.96875 298.773438 C 123.828125 298.910156 123.757812 299.078125 123.757812 299.273438 C 123.757812 299.46875 123.828125 299.636719 123.96875 299.777344 C 124.105469 299.914062 124.273438 299.984375 124.472656 299.984375 Z M 124.472656 299.984375 " fill-opacity="1" fill-rule="nonzero"/></g><g clip-path="url(#8cee951c8c)"><path fill="#ffffff" d="M 115.742188 299.984375 L 115.777344 299.984375 C 115.972656 299.984375 116.140625 299.914062 116.28125 299.777344 C 116.417969 299.636719 116.488281 299.46875 116.488281 299.273438 C 116.488281 299.078125 116.417969 298.910156 116.28125 298.773438 C 116.140625 298.632812 115.972656 298.566406 115.777344 298.566406 L 115.742188 298.566406 C 115.542969 298.566406 115.375 298.632812 115.238281 298.773438 C 115.097656 298.910156 115.027344 299.078125 115.027344 299.273438 C 115.027344 299.46875 115.097656 299.636719 115.238281 299.777344 C 115.375 299.914062 115.542969 299.984375 115.742188 299.984375 Z M 115.742188 299.984375 " fill-opacity="1" fill-rule="nonzero"/></g><g clip-path="url(#d8642e4a4e)"><path fill="#ffffff" d="M 132.03125 305.644531 C 131.835938 305.644531 131.667969 305.714844 131.527344 305.851562 C 131.390625 305.988281 131.320312 306.15625 131.320312 306.351562 L 131.320312 306.386719 C 131.320312 306.582031 131.386719 306.75 131.527344 306.886719 C 131.667969 307.027344 131.835938 307.097656 132.03125 307.097656 C 132.230469 307.097656 132.398438 307.027344 132.535156 306.886719 C 132.675781 306.75 132.746094 306.582031 132.746094 306.386719 L 132.746094 306.351562 C 132.746094 306.15625 132.675781 305.988281 132.535156 305.851562 C 132.398438 305.714844 132.230469 305.644531 132.03125 305.644531 Z M 132.03125 305.644531 " fill-opacity="1" fill-rule="nonzero"/></g><g clip-path="url(#822e0c8252)"><path fill="#ffffff" d="M 132.03125 309.984375 C 131.835938 309.984375 131.667969 310.054688 131.527344 310.191406 C 131.390625 310.332031 131.320312 310.496094 131.320312 310.695312 L 131.320312 310.726562 C 131.320312 310.921875 131.386719 311.089844 131.527344 311.230469 C 131.667969 311.367188 131.835938 311.4375 132.03125 311.4375 C 132.230469 311.4375 132.398438 311.367188 132.535156 311.230469 C 132.675781 311.089844 132.746094 310.921875 132.746094 310.726562 L 132.746094 310.695312 C 132.746094 310.496094 132.675781 310.332031 132.535156 310.191406 C 132.398438 310.054688 132.230469 309.984375 132.03125 309.984375 Z M 132.03125 309.984375 " fill-opacity="1" fill-rule="nonzero"/></g><g clip-path="url(#3d7934c930)"><path fill="#ffffff" d="M 102.648438 299.984375 L 102.683594 299.984375 C 102.878906 299.984375 103.046875 299.914062 103.1875 299.777344 C 103.324219 299.636719 103.394531 299.46875 103.394531 299.273438 C 103.394531 299.078125 103.324219 298.910156 103.1875 298.773438 C 103.046875 298.632812 102.878906 298.566406 102.683594 298.566406 L 102.648438 298.566406 C 102.449219 298.566406 102.28125 298.632812 102.144531 298.773438 C 102.003906 298.910156 101.933594 299.078125 101.933594 299.273438 C 101.933594 299.46875 102.003906 299.636719 102.144531 299.777344 C 102.28125 299.914062 102.449219 299.984375 102.648438 299.984375 Z M 102.648438 299.984375 " fill-opacity="1" fill-rule="nonzero"/></g><g clip-path="url(#dd8b19cd7d)"><path fill="#ffffff" d="M 98.28125 299.984375 L 98.316406 299.984375 C 98.515625 299.984375 98.683594 299.914062 98.820312 299.777344 C 98.960938 299.636719 99.03125 299.46875 99.03125 299.273438 C 99.03125 299.078125 98.960938 298.910156 98.820312 298.773438 C 98.683594 298.632812 98.515625 298.566406 98.316406 298.566406 L 98.28125 298.566406 C 98.085938 298.566406 97.917969 298.632812 97.777344 298.773438 C 97.640625 298.910156 97.570312 299.078125 97.570312 299.273438 C 97.570312 299.46875 97.640625 299.636719 97.777344 299.777344 C 97.917969 299.914062 98.085938 299.984375 98.28125 299.984375 Z M 98.28125 299.984375 " fill-opacity="1" fill-rule="nonzero"/></g><g clip-path="url(#1db0ea26fb)"><path fill="#ffffff" d="M 132.03125 314.328125 C 131.835938 314.328125 131.667969 314.398438 131.527344 314.535156 C 131.390625 314.675781 131.320312 314.84375 131.320312 315.039062 L 131.320312 327.164062 C 131.320312 327.554688 131.242188 327.933594 131.089844 328.296875 C 130.941406 328.660156 130.722656 328.980469 130.445312 329.257812 C 130.164062 329.539062 129.84375 329.75 129.476562 329.902344 C 129.113281 330.054688 128.730469 330.128906 128.335938 330.128906 L 88.597656 330.128906 C 88.402344 330.128906 88.234375 330.199219 88.09375 330.335938 C 87.957031 330.476562 87.886719 330.640625 87.886719 330.835938 C 87.886719 331.035156 87.957031 331.199219 88.09375 331.339844 C 88.234375 331.476562 88.402344 331.546875 88.597656 331.546875 L 128.335938 331.546875 C 128.625 331.546875 128.914062 331.519531 129.195312 331.460938 C 129.480469 331.40625 129.753906 331.320312 130.023438 331.210938 C 130.289062 331.101562 130.542969 330.964844 130.785156 330.804688 C 131.023438 330.644531 131.246094 330.464844 131.453125 330.261719 C 131.65625 330.058594 131.839844 329.835938 132 329.597656 C 132.160156 329.359375 132.296875 329.105469 132.40625 328.839844 C 132.519531 328.574219 132.601562 328.300781 132.660156 328.019531 C 132.714844 327.734375 132.746094 327.449219 132.746094 327.164062 L 132.746094 315.039062 C 132.746094 314.84375 132.675781 314.675781 132.535156 314.535156 C 132.398438 314.398438 132.230469 314.328125 132.03125 314.328125 Z M 132.03125 314.328125 " fill-opacity="1" fill-rule="nonzero"/></g><g clip-path="url(#d25eff29d8)"><path fill="#ffffff" d="M 88.597656 299.984375 C 88.796875 299.984375 88.964844 299.914062 89.101562 299.777344 C 89.242188 299.636719 89.3125 299.46875 89.3125 299.273438 C 89.3125 299.078125 89.242188 298.910156 89.101562 298.773438 C 88.964844 298.632812 88.796875 298.566406 88.597656 298.566406 L 48.863281 298.566406 C 48.574219 298.566406 48.285156 298.59375 48.003906 298.648438 C 47.71875 298.707031 47.441406 298.789062 47.175781 298.898438 C 46.910156 299.011719 46.65625 299.144531 46.414062 299.304688 C 46.171875 299.464844 45.953125 299.648438 45.746094 299.851562 C 45.542969 300.054688 45.359375 300.277344 45.199219 300.515625 C 45.039062 300.753906 44.902344 301.007812 44.789062 301.273438 C 44.679688 301.539062 44.597656 301.8125 44.539062 302.09375 C 44.484375 302.375 44.453125 302.660156 44.453125 302.949219 L 44.453125 315.074219 C 44.453125 315.269531 44.523438 315.4375 44.664062 315.574219 C 44.800781 315.714844 44.96875 315.78125 45.167969 315.78125 C 45.363281 315.78125 45.53125 315.714844 45.671875 315.574219 C 45.808594 315.4375 45.878906 315.269531 45.878906 315.074219 L 45.878906 302.949219 C 45.878906 302.554688 45.957031 302.179688 46.109375 301.816406 C 46.257812 301.453125 46.476562 301.132812 46.753906 300.851562 C 47.035156 300.574219 47.355469 300.359375 47.722656 300.210938 C 48.085938 300.058594 48.46875 299.984375 48.863281 299.984375 Z M 88.597656 299.984375 " fill-opacity="1" fill-rule="nonzero"/></g><g fill="#04c261" fill-opacity="1"><g transform="translate(51.131949, 319.8707)"><g><path d="M 4.59375 -12.234375 L 4.59375 -11.15625 C 5.269531 -11.039062 5.785156 -10.851562 6.140625 -10.59375 C 6.503906 -10.332031 6.753906 -9.988281 6.890625 -9.5625 C 7.023438 -9.144531 7.085938 -8.582031 7.078125 -7.875 L 4.265625 -7.875 L 4.265625 -9.0625 C 4.265625 -9.207031 4.210938 -9.332031 4.109375 -9.4375 C 4.003906 -9.550781 3.863281 -9.609375 3.6875 -9.609375 C 3.5 -9.609375 3.359375 -9.550781 3.265625 -9.4375 C 3.171875 -9.332031 3.125 -9.210938 3.125 -9.078125 L 3.125 -8.5625 C 3.125 -8.289062 3.203125 -8.054688 3.359375 -7.859375 C 3.523438 -7.671875 3.707031 -7.515625 3.90625 -7.390625 C 4.113281 -7.265625 4.410156 -7.101562 4.796875 -6.90625 C 5.273438 -6.65625 5.679688 -6.410156 6.015625 -6.171875 C 6.359375 -5.929688 6.648438 -5.609375 6.890625 -5.203125 C 7.140625 -4.796875 7.265625 -4.3125 7.265625 -3.75 L 7.265625 -2.875 C 7.265625 -1.90625 7.046875 -1.191406 6.609375 -0.734375 C 6.171875 -0.273438 5.5 -0.00390625 4.59375 0.078125 L 4.59375 1.40625 L 3.125 1.40625 L 3.125 0.078125 C 2.5 0.0234375 1.984375 -0.0976562 1.578125 -0.296875 C 1.171875 -0.492188 0.859375 -0.820312 0.640625 -1.28125 C 0.421875 -1.738281 0.3125 -2.359375 0.3125 -3.140625 L 0.3125 -3.953125 L 3.125 -3.953125 L 3.125 -2.203125 C 3.125 -2.078125 3.171875 -1.957031 3.265625 -1.84375 C 3.359375 -1.738281 3.503906 -1.6875 3.703125 -1.6875 C 3.878906 -1.6875 4.015625 -1.742188 4.109375 -1.859375 C 4.203125 -1.972656 4.25 -2.09375 4.25 -2.21875 L 4.25 -3.0625 C 4.25 -3.363281 4.171875 -3.628906 4.015625 -3.859375 C 3.859375 -4.085938 3.679688 -4.269531 3.484375 -4.40625 C 3.285156 -4.539062 3.003906 -4.71875 2.640625 -4.9375 C 2.128906 -5.21875 1.71875 -5.484375 1.40625 -5.734375 C 1.09375 -5.992188 0.832031 -6.320312 0.625 -6.71875 C 0.414062 -7.125 0.3125 -7.625 0.3125 -8.21875 C 0.3125 -9.09375 0.550781 -9.765625 1.03125 -10.234375 C 1.507812 -10.710938 2.207031 -11.019531 3.125 -11.15625 L 3.125 -12.234375 Z M 4.59375 -12.234375 "/></g></g></g><g fill="#04c261" fill-opacity="1"><g transform="translate(59.404525, 319.8707)"><g><path d="M 5.5 0 L 2.6875 0 L 2.6875 -7.109375 C 2.6875 -7.546875 2.617188 -7.859375 2.484375 -8.046875 C 2.359375 -8.242188 2.09375 -8.34375 1.6875 -8.34375 L 0.5625 -8.34375 L 0.5625 -9.71875 C 1.3125 -9.882812 1.945312 -10.109375 2.46875 -10.390625 C 2.988281 -10.679688 3.457031 -11.113281 3.875 -11.6875 L 5.5 -11.6875 Z M 5.5 0 "/></g></g></g><g fill="#04c261" fill-opacity="1"><g transform="translate(66.156791, 319.8707)"><g><path d="M 3.09375 -0.578125 C 3.09375 -0.253906 3 0.0664062 2.8125 0.390625 C 2.632812 0.722656 2.382812 1 2.0625 1.21875 C 1.75 1.4375 1.382812 1.546875 0.96875 1.546875 L 0.890625 0.671875 C 1.078125 0.660156 1.21875 0.585938 1.3125 0.453125 C 1.40625 0.316406 1.453125 0.164062 1.453125 0 L 0.828125 0 L 0.828125 -2.359375 L 3.09375 -2.359375 Z M 3.09375 -0.578125 "/></g></g></g><g fill="#04c261" fill-opacity="1"><g transform="translate(70.783891, 319.8707)"><g><path d="M 3.921875 -11.921875 C 4.679688 -11.921875 5.316406 -11.785156 5.828125 -11.515625 C 6.347656 -11.253906 6.734375 -10.898438 6.984375 -10.453125 C 7.234375 -10.015625 7.359375 -9.523438 7.359375 -8.984375 L 7.359375 -2.703125 C 7.359375 -2.148438 7.226562 -1.648438 6.96875 -1.203125 C 6.71875 -0.765625 6.335938 -0.410156 5.828125 -0.140625 C 5.316406 0.117188 4.679688 0.25 3.921875 0.25 C 3.171875 0.25 2.535156 0.113281 2.015625 -0.15625 C 1.503906 -0.425781 1.117188 -0.78125 0.859375 -1.21875 C 0.609375 -1.65625 0.484375 -2.148438 0.484375 -2.703125 L 0.484375 -8.984375 C 0.484375 -9.523438 0.613281 -10.019531 0.875 -10.46875 C 1.132812 -10.914062 1.519531 -11.269531 2.03125 -11.53125 C 2.539062 -11.789062 3.171875 -11.921875 3.921875 -11.921875 Z M 3.40625 -9.4375 L 3.40625 -2.390625 C 3.40625 -2.222656 3.441406 -2.050781 3.515625 -1.875 C 3.585938 -1.707031 3.722656 -1.625 3.921875 -1.625 C 4.273438 -1.625 4.453125 -1.890625 4.453125 -2.421875 L 4.453125 -9.59375 C 4.453125 -9.71875 4.40625 -9.84375 4.3125 -9.96875 C 4.21875 -10.09375 4.082031 -10.15625 3.90625 -10.15625 C 3.75 -10.15625 3.625 -10.09375 3.53125 -9.96875 C 3.445312 -9.84375 3.40625 -9.664062 3.40625 -9.4375 Z M 3.40625 -9.4375 "/></g></g></g><g fill="#04c261" fill-opacity="1"><g transform="translate(79.33438, 319.8707)"><g><path d="M 3.921875 -11.921875 C 4.679688 -11.921875 5.316406 -11.785156 5.828125 -11.515625 C 6.347656 -11.253906 6.734375 -10.898438 6.984375 -10.453125 C 7.234375 -10.015625 7.359375 -9.523438 7.359375 -8.984375 L 7.359375 -2.703125 C 7.359375 -2.148438 7.226562 -1.648438 6.96875 -1.203125 C 6.71875 -0.765625 6.335938 -0.410156 5.828125 -0.140625 C 5.316406 0.117188 4.679688 0.25 3.921875 0.25 C 3.171875 0.25 2.535156 0.113281 2.015625 -0.15625 C 1.503906 -0.425781 1.117188 -0.78125 0.859375 -1.21875 C 0.609375 -1.65625 0.484375 -2.148438 0.484375 -2.703125 L 0.484375 -8.984375 C 0.484375 -9.523438 0.613281 -10.019531 0.875 -10.46875 C 1.132812 -10.914062 1.519531 -11.269531 2.03125 -11.53125 C 2.539062 -11.789062 3.171875 -11.921875 3.921875 -11.921875 Z M 3.40625 -9.4375 L 3.40625 -2.390625 C 3.40625 -2.222656 3.441406 -2.050781 3.515625 -1.875 C 3.585938 -1.707031 3.722656 -1.625 3.921875 -1.625 C 4.273438 -1.625 4.453125 -1.890625 4.453125 -2.421875 L 4.453125 -9.59375 C 4.453125 -9.71875 4.40625 -9.84375 4.3125 -9.96875 C 4.21875 -10.09375 4.082031 -10.15625 3.90625 -10.15625 C 3.75 -10.15625 3.625 -10.09375 3.53125 -9.96875 C 3.445312 -9.84375 3.40625 -9.664062 3.40625 -9.4375 Z M 3.40625 -9.4375 "/></g></g></g><g fill="#04c261" fill-opacity="1"><g transform="translate(87.884868, 319.8707)"><g><path d="M 3.921875 -11.921875 C 4.679688 -11.921875 5.316406 -11.785156 5.828125 -11.515625 C 6.347656 -11.253906 6.734375 -10.898438 6.984375 -10.453125 C 7.234375 -10.015625 7.359375 -9.523438 7.359375 -8.984375 L 7.359375 -2.703125 C 7.359375 -2.148438 7.226562 -1.648438 6.96875 -1.203125 C 6.71875 -0.765625 6.335938 -0.410156 5.828125 -0.140625 C 5.316406 0.117188 4.679688 0.25 3.921875 0.25 C 3.171875 0.25 2.535156 0.113281 2.015625 -0.15625 C 1.503906 -0.425781 1.117188 -0.78125 0.859375 -1.21875 C 0.609375 -1.65625 0.484375 -2.148438 0.484375 -2.703125 L 0.484375 -8.984375 C 0.484375 -9.523438 0.613281 -10.019531 0.875 -10.46875 C 1.132812 -10.914062 1.519531 -11.269531 2.03125 -11.53125 C 2.539062 -11.789062 3.171875 -11.921875 3.921875 -11.921875 Z M 3.40625 -9.4375 L 3.40625 -2.390625 C 3.40625 -2.222656 3.441406 -2.050781 3.515625 -1.875 C 3.585938 -1.707031 3.722656 -1.625 3.921875 -1.625 C 4.273438 -1.625 4.453125 -1.890625 4.453125 -2.421875 L 4.453125 -9.59375 C 4.453125 -9.71875 4.40625 -9.84375 4.3125 -9.96875 C 4.21875 -10.09375 4.082031 -10.15625 3.90625 -10.15625 C 3.75 -10.15625 3.625 -10.09375 3.53125 -9.96875 C 3.445312 -9.84375 3.40625 -9.664062 3.40625 -9.4375 Z M 3.40625 -9.4375 "/></g></g></g><g fill="#04c261" fill-opacity="1"><g transform="translate(96.435357, 319.8707)"><g><path d="M 3.09375 -0.578125 C 3.09375 -0.253906 3 0.0664062 2.8125 0.390625 C 2.632812 0.722656 2.382812 1 2.0625 1.21875 C 1.75 1.4375 1.382812 1.546875 0.96875 1.546875 L 0.890625 0.671875 C 1.078125 0.660156 1.21875 0.585938 1.3125 0.453125 C 1.40625 0.316406 1.453125 0.164062 1.453125 0 L 0.828125 0 L 0.828125 -2.359375 L 3.09375 -2.359375 Z M 3.09375 -0.578125 "/></g></g></g><g fill="#04c261" fill-opacity="1"><g transform="translate(101.062457, 319.8707)"><g><path d="M 3.921875 -11.921875 C 4.679688 -11.921875 5.316406 -11.785156 5.828125 -11.515625 C 6.347656 -11.253906 6.734375 -10.898438 6.984375 -10.453125 C 7.234375 -10.015625 7.359375 -9.523438 7.359375 -8.984375 L 7.359375 -2.703125 C 7.359375 -2.148438 7.226562 -1.648438 6.96875 -1.203125 C 6.71875 -0.765625 6.335938 -0.410156 5.828125 -0.140625 C 5.316406 0.117188 4.679688 0.25 3.921875 0.25 C 3.171875 0.25 2.535156 0.113281 2.015625 -0.15625 C 1.503906 -0.425781 1.117188 -0.78125 0.859375 -1.21875 C 0.609375 -1.65625 0.484375 -2.148438 0.484375 -2.703125 L 0.484375 -8.984375 C 0.484375 -9.523438 0.613281 -10.019531 0.875 -10.46875 C 1.132812 -10.914062 1.519531 -11.269531 2.03125 -11.53125 C 2.539062 -11.789062 3.171875 -11.921875 3.921875 -11.921875 Z M 3.40625 -9.4375 L 3.40625 -2.390625 C 3.40625 -2.222656 3.441406 -2.050781 3.515625 -1.875 C 3.585938 -1.707031 3.722656 -1.625 3.921875 -1.625 C 4.273438 -1.625 4.453125 -1.890625 4.453125 -2.421875 L 4.453125 -9.59375 C 4.453125 -9.71875 4.40625 -9.84375 4.3125 -9.96875 C 4.21875 -10.09375 4.082031 -10.15625 3.90625 -10.15625 C 3.75 -10.15625 3.625 -10.09375 3.53125 -9.96875 C 3.445312 -9.84375 3.40625 -9.664062 3.40625 -9.4375 Z M 3.40625 -9.4375 "/></g></g></g><g fill="#04c261" fill-opacity="1"><g transform="translate(109.612945, 319.8707)"><g><path d="M 3.921875 -11.921875 C 4.679688 -11.921875 5.316406 -11.785156 5.828125 -11.515625 C 6.347656 -11.253906 6.734375 -10.898438 6.984375 -10.453125 C 7.234375 -10.015625 7.359375 -9.523438 7.359375 -8.984375 L 7.359375 -2.703125 C 7.359375 -2.148438 7.226562 -1.648438 6.96875 -1.203125 C 6.71875 -0.765625 6.335938 -0.410156 5.828125 -0.140625 C 5.316406 0.117188 4.679688 0.25 3.921875 0.25 C 3.171875 0.25 2.535156 0.113281 2.015625 -0.15625 C 1.503906 -0.425781 1.117188 -0.78125 0.859375 -1.21875 C 0.609375 -1.65625 0.484375 -2.148438 0.484375 -2.703125 L 0.484375 -8.984375 C 0.484375 -9.523438 0.613281 -10.019531 0.875 -10.46875 C 1.132812 -10.914062 1.519531 -11.269531 2.03125 -11.53125 C 2.539062 -11.789062 3.171875 -11.921875 3.921875 -11.921875 Z M 3.40625 -9.4375 L 3.40625 -2.390625 C 3.40625 -2.222656 3.441406 -2.050781 3.515625 -1.875 C 3.585938 -1.707031 3.722656 -1.625 3.921875 -1.625 C 4.273438 -1.625 4.453125 -1.890625 4.453125 -2.421875 L 4.453125 -9.59375 C 4.453125 -9.71875 4.40625 -9.84375 4.3125 -9.96875 C 4.21875 -10.09375 4.082031 -10.15625 3.90625 -10.15625 C 3.75 -10.15625 3.625 -10.09375 3.53125 -9.96875 C 3.445312 -9.84375 3.40625 -9.664062 3.40625 -9.4375 Z M 3.40625 -9.4375 "/></g></g></g><g fill="#04c261" fill-opacity="1"><g transform="translate(118.163434, 319.8707)"><g><path d="M 3.921875 -11.921875 C 4.679688 -11.921875 5.316406 -11.785156 5.828125 -11.515625 C 6.347656 -11.253906 6.734375 -10.898438 6.984375 -10.453125 C 7.234375 -10.015625 7.359375 -9.523438 7.359375 -8.984375 L 7.359375 -2.703125 C 7.359375 -2.148438 7.226562 -1.648438 6.96875 -1.203125 C 6.71875 -0.765625 6.335938 -0.410156 5.828125 -0.140625 C 5.316406 0.117188 4.679688 0.25 3.921875 0.25 C 3.171875 0.25 2.535156 0.113281 2.015625 -0.15625 C 1.503906 -0.425781 1.117188 -0.78125 0.859375 -1.21875 C 0.609375 -1.65625 0.484375 -2.148438 0.484375 -2.703125 L 0.484375 -8.984375 C 0.484375 -9.523438 0.613281 -10.019531 0.875 -10.46875 C 1.132812 -10.914062 1.519531 -11.269531 2.03125 -11.53125 C 2.539062 -11.789062 3.171875 -11.921875 3.921875 -11.921875 Z M 3.40625 -9.4375 L 3.40625 -2.390625 C 3.40625 -2.222656 3.441406 -2.050781 3.515625 -1.875 C 3.585938 -1.707031 3.722656 -1.625 3.921875 -1.625 C 4.273438 -1.625 4.453125 -1.890625 4.453125 -2.421875 L 4.453125 -9.59375 C 4.453125 -9.71875 4.40625 -9.84375 4.3125 -9.96875 C 4.21875 -10.09375 4.082031 -10.15625 3.90625 -10.15625 C 3.75 -10.15625 3.625 -10.09375 3.53125 -9.96875 C 3.445312 -9.84375 3.40625 -9.664062 3.40625 -9.4375 Z M 3.40625 -9.4375 "/></g></g></g><g clip-path="url(#d04e3f2db6)"><g clip-path="url(#9739940767)"><path fill="#f7931a" d="M 20.25 9.984375 L 44.804688 9.984375 L 44.804688 34.539062 L 20.25 34.539062 Z M 20.25 9.984375 " fill-opacity="1" fill-rule="nonzero"/></g></g><g clip-path="url(#2f138d6b62)"><g clip-path="url(#3fc1a9f692)"><path fill="#ffffff" d="M 9.113281 18.503906 L 25.484375 18.503906 L 25.484375 34.875 L 9.113281 34.875 Z M 9.113281 18.503906 " fill-opacity="1" fill-rule="nonzero"/></g></g></svg>