<svg xmlns="http://www.w3.org/2000/svg" xmlns:xlink="http://www.w3.org/1999/xlink" width="1080" zoomAndPan="magnify" viewBox="0 0 810 225" height="300" preserveAspectRatio="xMidYMid meet" version="1.0"><defs><g/><clipPath id="32907282f8"><path d="M 647.457031 91.65625 L 702.84375 91.65625 L 702.84375 147.042969 L 647.457031 147.042969 Z M 647.457031 91.65625 " clip-rule="nonzero"/></clipPath><clipPath id="01a4073a1e"><path d="M 675.148438 91.65625 C 659.855469 91.65625 647.457031 104.054688 647.457031 119.351562 C 647.457031 134.644531 659.855469 147.042969 675.148438 147.042969 C 690.445312 147.042969 702.84375 134.644531 702.84375 119.351562 C 702.84375 104.054688 690.445312 91.65625 675.148438 91.65625 Z M 675.148438 91.65625 " clip-rule="nonzero"/></clipPath><clipPath id="c7ec8b6245"><path d="M 702.84375 90.894531 L 758.230469 90.894531 L 758.230469 146.28125 L 702.84375 146.28125 Z M 702.84375 90.894531 " clip-rule="nonzero"/></clipPath><clipPath id="c3f7f8949a"><path d="M 730.535156 90.894531 C 715.242188 90.894531 702.84375 103.292969 702.84375 118.585938 C 702.84375 133.882812 715.242188 146.28125 730.535156 146.28125 C 745.832031 146.28125 758.230469 133.882812 758.230469 118.585938 C 758.230469 103.292969 745.832031 90.894531 730.535156 90.894531 Z M 730.535156 90.894531 " clip-rule="nonzero"/></clipPath><clipPath id="37f92ace69"><path d="M 211.214844 45.167969 L 229.472656 45.167969 L 229.472656 178.824219 L 211.214844 178.824219 Z M 211.214844 45.167969 " clip-rule="nonzero"/></clipPath><clipPath id="7c852be4c6"><path d="M 220.34375 45.167969 C 222.765625 45.167969 225.085938 46.132812 226.796875 47.84375 C 228.511719 49.554688 229.472656 51.878906 229.472656 54.300781 L 229.472656 169.636719 C 229.472656 172.058594 228.511719 174.378906 226.796875 176.09375 C 225.085938 177.804688 222.765625 178.765625 220.34375 178.765625 C 217.921875 178.765625 215.601562 177.804688 213.886719 176.09375 C 212.175781 174.378906 211.214844 172.058594 211.214844 169.636719 L 211.214844 54.300781 C 211.214844 51.878906 212.175781 49.554688 213.886719 47.84375 C 215.601562 46.132812 217.921875 45.167969 220.34375 45.167969 Z M 220.34375 45.167969 " clip-rule="nonzero"/></clipPath><clipPath id="5cadd490e3"><path d="M 62.539062 45.167969 L 188.191406 45.167969 L 188.191406 170.824219 L 62.539062 170.824219 Z M 62.539062 45.167969 " clip-rule="nonzero"/></clipPath><clipPath id="f82b180ea4"><path d="M 125.367188 45.167969 C 90.667969 45.167969 62.539062 73.296875 62.539062 107.996094 C 62.539062 142.695312 90.667969 170.824219 125.367188 170.824219 C 160.066406 170.824219 188.191406 142.695312 188.191406 107.996094 C 188.191406 73.296875 160.066406 45.167969 125.367188 45.167969 Z M 125.367188 45.167969 " clip-rule="nonzero"/></clipPath><clipPath id="716667d642"><path d="M 5.550781 88.757812 L 89.316406 88.757812 L 89.316406 172.527344 L 5.550781 172.527344 Z M 5.550781 88.757812 " clip-rule="nonzero"/></clipPath><clipPath id="097f037dbe"><path d="M 47.433594 88.757812 C 24.300781 88.757812 5.550781 107.511719 5.550781 130.644531 C 5.550781 153.777344 24.300781 172.527344 47.433594 172.527344 C 70.566406 172.527344 89.316406 153.777344 89.316406 130.644531 C 89.316406 107.511719 70.566406 88.757812 47.433594 88.757812 Z M 47.433594 88.757812 " clip-rule="nonzero"/></clipPath></defs><g clip-path="url(#32907282f8)"><g clip-path="url(#01a4073a1e)"><path fill="#f7931a" d="M 647.457031 91.65625 L 702.84375 91.65625 L 702.84375 147.042969 L 647.457031 147.042969 Z M 647.457031 91.65625 " fill-opacity="1" fill-rule="nonzero"/></g></g><g clip-path="url(#c7ec8b6245)"><g clip-path="url(#c3f7f8949a)"><path fill="#f7931a" d="M 702.84375 90.894531 L 758.230469 90.894531 L 758.230469 146.28125 L 702.84375 146.28125 Z M 702.84375 90.894531 " fill-opacity="1" fill-rule="nonzero"/></g></g><g clip-path="url(#37f92ace69)"><g clip-path="url(#7c852be4c6)"><path fill="#ffffff" d="M 211.214844 45.167969 L 229.472656 45.167969 L 229.472656 178.753906 L 211.214844 178.753906 Z M 211.214844 45.167969 " fill-opacity="1" fill-rule="nonzero"/></g></g><path stroke-linecap="butt" transform="matrix(3.990224, 0, 0, 3.990224, 230.638906, 77.453239)" fill="none" stroke-linejoin="miter" d="M 24.598637 -2.689218 C 25.540392 -2.689218 26.218808 -2.663765 26.633885 -2.613839 C 27.039172 -2.552165 27.307406 -2.461122 27.438586 -2.339731 C 27.560955 -2.218341 27.62165 -2.010802 27.62165 -1.717116 L 27.62165 17.103297 C 27.62165 17.396983 27.555081 17.605501 27.423901 17.726891 C 27.291742 17.848282 26.998056 17.939325 26.542842 18.00002 C 26.076859 18.060715 25.322085 18.091063 24.279497 18.091063 C 23.235931 18.091063 22.527168 18.030367 22.152228 17.908977 C 21.767499 17.797376 21.49437 17.589838 21.332842 17.286361 L 15.605955 7.291229 L 15.605955 17.134623 C 15.605955 17.42831 15.54526 17.635848 15.42289 17.757239 C 15.29171 17.878629 15.023477 17.964777 14.618189 18.014704 C 14.203112 18.06561 13.524696 18.091063 12.582941 18.091063 C 11.641187 18.091063 10.967665 18.060715 10.562378 18.00002 C 10.147301 17.949114 9.879067 17.862966 9.757677 17.741576 C 9.635307 17.629975 9.574612 17.42831 9.574612 17.134623 L 9.574612 -1.686768 C 9.574612 -1.980455 9.641181 -2.192888 9.772361 -2.325047 C 9.893752 -2.446437 10.187438 -2.53748 10.653421 -2.598175 C 11.109614 -2.658871 11.858515 -2.689218 12.902081 -2.689218 C 13.944668 -2.689218 14.658326 -2.633418 15.044035 -2.521817 C 15.417995 -2.400427 15.686229 -2.187993 15.848736 -1.884517 L 21.575623 8.140962 L 21.575623 -1.717116 C 21.575623 -2.010802 21.641213 -2.218341 21.773372 -2.339731 C 21.894763 -2.461122 22.162996 -2.552165 22.578073 -2.613839 C 22.983361 -2.663765 23.656882 -2.689218 24.598637 -2.689218 Z M 37.073462 2.140946 C 39.746989 2.140946 41.697067 2.793909 42.92174 4.100815 C 44.137603 5.406741 44.744555 7.447862 44.744555 10.222221 C 44.744555 12.997559 44.137603 15.037701 42.92174 16.344607 C 41.697067 17.650533 39.746989 18.303496 37.073462 18.303496 C 34.399936 18.303496 32.450836 17.645638 31.225184 16.328943 C 30.000511 15.023017 29.387685 12.98679 29.387685 10.222221 C 29.387685 7.457652 30.000511 5.417509 31.225184 4.100815 C 32.450836 2.793909 34.399936 2.140946 37.073462 2.140946 Z M 37.073462 13.762123 C 37.823342 13.762123 38.334356 13.498784 38.608464 12.972106 C 38.871803 12.455218 39.002983 11.538916 39.002983 10.222221 C 39.002983 8.905526 38.871803 7.98433 38.608464 7.457652 C 38.334356 6.941742 37.823342 6.683298 37.073462 6.683298 C 36.324562 6.683298 35.818442 6.941742 35.555103 7.457652 C 35.280995 7.98433 35.144921 8.905526 35.144921 10.222221 C 35.144921 11.538916 35.280995 12.455218 35.555103 12.972106 C 35.818442 13.498784 36.324562 13.762123 37.073462 13.762123 Z M 51.934001 -2.719566 L 51.934001 4.054804 C 52.835619 2.779225 54.248251 2.140946 56.172877 2.140946 C 58.106313 2.140946 59.564957 2.77433 60.546849 4.040119 C 61.52972 5.305908 62.021155 7.366609 62.021155 10.222221 C 62.021155 13.077833 61.52972 15.139513 60.546849 16.405302 C 59.564957 17.671091 58.106313 18.303496 56.172877 18.303496 C 54.208114 18.303496 52.765134 17.640743 51.842958 16.314259 L 51.812611 17.195319 C 51.802821 17.458658 51.742126 17.645638 51.630525 17.757239 C 51.518924 17.867861 51.276143 17.949114 50.901204 18.00002 C 50.516474 18.060715 49.898754 18.091063 49.048042 18.091063 C 48.18754 18.091063 47.569819 18.06561 47.194879 18.014704 C 46.81015 17.964777 46.562474 17.878629 46.450874 17.757239 C 46.329483 17.645638 46.268788 17.458658 46.268788 17.195319 L 46.268788 -2.719566 C 46.268788 -2.982905 46.329483 -3.175759 46.450874 -3.297149 C 46.572264 -3.40875 46.824834 -3.489025 47.210543 -3.53993 C 47.595272 -3.590836 48.227677 -3.616289 49.108737 -3.616289 C 49.989796 -3.616289 50.62318 -3.590836 51.00791 -3.53993 C 51.392639 -3.489025 51.646188 -3.40875 51.767579 -3.297149 C 51.878201 -3.185549 51.934001 -2.992694 51.934001 -2.719566 Z M 51.934001 10.222221 C 51.934001 11.498779 52.101403 12.394523 52.435226 12.911411 C 52.75926 13.438089 53.336844 13.701428 54.166998 13.701428 C 54.926667 13.701428 55.463135 13.438089 55.777379 12.911411 C 56.080855 12.394523 56.233572 11.498779 56.233572 10.222221 C 56.233572 8.946643 56.080855 8.045025 55.777379 7.518347 C 55.463135 7.002438 54.926667 6.743993 54.166998 6.743993 C 53.336844 6.743993 52.75926 7.002438 52.435226 7.518347 C 52.101403 8.045025 51.934001 8.946643 51.934001 10.222221 Z M 69.847901 13.214887 L 69.99964 13.214887 C 70.273747 13.214887 70.470517 13.265793 70.592886 13.366625 C 70.703508 13.468436 70.789656 13.685764 70.850352 14.020567 C 70.911047 14.36418 70.941394 14.901627 70.941394 15.629969 C 70.941394 16.662767 70.866015 17.326499 70.714277 17.620185 C 70.56156 17.913872 70.222841 18.060715 69.696163 18.060715 L 67.949707 18.060715 C 66.237515 18.060715 65.083327 17.757239 64.486164 17.149308 C 63.888023 16.552145 63.589441 15.382294 63.589441 13.640732 L 63.589441 -2.719566 C 63.589441 -2.982905 63.650136 -3.175759 63.771527 -3.297149 C 63.893896 -3.40875 64.146467 -3.489025 64.531196 -3.53993 C 64.915925 -3.590836 65.549309 -3.616289 66.430369 -3.616289 C 67.311429 -3.616289 67.943834 -3.590836 68.328563 -3.53993 C 68.714271 -3.489025 68.966842 -3.40875 69.088232 -3.297149 C 69.199833 -3.185549 69.255634 -2.992694 69.255634 -2.719566 L 69.255634 12.561924 C 69.255634 12.815473 69.301645 12.98679 69.392687 13.077833 C 69.472962 13.169855 69.625679 13.214887 69.847901 13.214887 Z M 85.331056 11.407736 L 77.083359 11.407736 C 77.153844 12.410186 77.366277 13.103286 77.720659 13.488015 C 78.065251 13.883513 78.601718 14.081262 79.33104 14.081262 C 79.787233 14.081262 80.141615 14.004904 80.394185 13.853166 C 80.637945 13.711217 80.769125 13.518363 80.789683 13.275582 C 80.810241 13.002454 80.860168 12.815473 80.941421 12.713662 C 81.011906 12.61283 81.220423 12.531576 81.564037 12.470881 C 81.898839 12.419975 82.470549 12.394523 83.281124 12.394523 C 83.827381 12.394523 84.242458 12.399417 84.526355 12.410186 C 84.810252 12.429765 85.068696 12.455218 85.300708 12.485565 C 85.5337 12.526682 85.691312 12.592272 85.771586 12.683314 C 85.852839 12.784147 85.913534 12.900642 85.95465 13.032801 C 85.994788 13.163981 86.015346 13.347046 86.015346 13.580037 C 86.015346 14.1772 85.893955 14.744015 85.650195 15.280482 C 85.397625 15.827718 85.01779 16.328943 84.511671 16.785136 C 84.004572 17.25014 83.300703 17.620185 82.400064 17.893314 C 81.498447 18.167421 80.455859 18.303496 79.270345 18.303496 C 76.617376 18.303496 74.652613 17.645638 73.377035 16.328943 C 72.100477 15.012249 71.462199 12.977001 71.462199 10.222221 C 71.462199 7.447862 72.075024 5.406741 73.300676 4.100815 C 74.51556 2.793909 76.45487 2.140946 79.118607 2.140946 C 81.508236 2.140946 83.295808 2.77433 84.481323 4.040119 C 85.656069 5.305908 86.243442 7.068028 86.243442 9.326477 L 86.243442 10.009788 C 86.243442 10.557024 86.187642 10.92609 86.076041 11.118944 C 85.96444 11.310819 85.716764 11.407736 85.331056 11.407736 Z M 79.20965 6.364159 C 78.531234 6.364159 78.034903 6.54135 77.720659 6.895732 C 77.396625 7.259903 77.19496 7.832592 77.113707 8.61184 L 80.880726 8.61184 L 80.880726 8.263332 C 80.880726 7.655401 80.76423 7.184523 80.531239 6.8507 C 80.298248 6.525686 79.857718 6.364159 79.20965 6.364159 Z M 94.328633 10.784141 L 93.979146 10.784141 L 93.979146 17.134623 C 93.979146 17.42831 93.918451 17.635848 93.79706 17.757239 C 93.664901 17.878629 93.396667 17.964777 92.99138 18.014704 C 92.576303 18.06561 91.897887 18.091063 90.956132 18.091063 C 90.014377 18.091063 89.340856 18.060715 88.935569 18.00002 C 88.520492 17.949114 88.252258 17.862966 88.130868 17.741576 C 88.009477 17.629975 87.948782 17.42831 87.948782 17.134623 L 87.948782 -1.626073 C 87.948782 -1.90997 88.019267 -2.117508 88.161215 -2.248688 C 88.292395 -2.370079 88.576292 -2.461122 89.011927 -2.521817 C 89.436794 -2.572723 90.130873 -2.598175 91.093186 -2.598175 L 95.787276 -2.598175 C 98.673236 -2.598175 100.754494 -2.061708 102.030073 -0.987794 C 103.295862 0.0959091 103.929246 1.832576 103.929246 4.222205 C 103.929246 6.764552 102.906238 8.566808 100.860222 9.629953 C 101.458363 10.004893 101.974272 10.490455 102.409908 11.088596 C 103.412358 12.515913 104.106437 14.374949 104.491166 16.662767 C 104.541093 16.916316 104.556756 17.12875 104.536198 17.301046 C 104.516619 17.483131 104.414808 17.629975 104.232722 17.741576 C 104.039868 17.862966 103.706044 17.949114 103.230272 18.00002 C 102.743731 18.060715 102.065315 18.091063 101.195024 18.091063 C 100.384449 18.091063 99.787287 18.060715 99.402557 18.00002 C 99.007059 17.939325 98.748615 17.853176 98.627225 17.741576 C 98.496045 17.629975 98.399128 17.447889 98.338433 17.195319 C 97.99482 15.615285 97.482826 14.172305 96.80441 12.8654 C 96.075089 11.548705 95.24983 10.855605 94.328633 10.784141 Z M 93.979146 2.445401 L 93.979146 6.060683 L 95.589527 6.060683 C 96.429471 6.060683 97.011949 5.944187 97.335983 5.711196 C 97.650228 5.478204 97.80686 4.991664 97.80686 4.252553 C 97.80686 3.604484 97.634564 3.138502 97.290951 2.855584 C 96.946359 2.581476 96.379544 2.445401 95.589527 2.445401 Z M 93.979146 2.445401 " stroke="#808080" stroke-width="0.42787" stroke-opacity="1" stroke-miterlimit="4"/><path stroke-linecap="butt" transform="matrix(3.990224, 0, 0, 3.990224, 230.638906, 77.453239)" fill="none" stroke-linejoin="miter" d="M 143.214716 7.108165 L 139.888226 7.108165 L 139.888226 12.501229 C 139.888226 12.784147 139.974374 13.002454 140.14667 13.154192 C 140.318967 13.316698 140.550979 13.396973 140.844665 13.396973 C 141.260721 13.396973 141.685588 13.316698 142.121223 13.154192 C 142.485394 13.032801 142.779081 13.063149 143.002283 13.245235 C 143.224505 13.42732 143.493718 13.944209 143.806984 14.794921 C 144.070323 15.483126 144.202482 16.014699 144.202482 16.389639 C 144.202482 16.794926 143.984175 17.123855 143.549518 17.377404 C 142.638111 17.954009 141.230374 18.242801 139.326306 18.242801 C 137.422238 18.242801 136.095754 17.817934 135.345874 16.967222 C 134.596974 16.1263 134.222034 14.769468 134.222034 12.895748 L 134.222034 7.108165 L 132.825065 7.108165 C 132.592074 7.108165 132.424672 7.063133 132.322861 6.97209 C 132.222029 6.881047 132.151544 6.678403 132.110428 6.364159 C 132.07029 6.060683 132.049732 5.553584 132.049732 4.84482 C 132.049732 4.136057 132.075185 3.629937 132.126091 3.326461 C 132.166228 3.022006 132.231818 2.825236 132.322861 2.733214 C 132.414883 2.642171 132.581305 2.586371 132.825065 2.566792 L 134.464815 2.445401 L 134.464815 -0.882067 C 134.464815 -1.145406 134.531384 -1.332386 134.662564 -1.443987 C 134.783954 -1.54482 135.02184 -1.616283 135.376222 -1.656421 C 135.730604 -1.696558 136.33364 -1.717116 137.184352 -1.717116 C 138.035064 -1.717116 138.637122 -1.696558 138.991503 -1.656421 C 139.336096 -1.616283 139.573982 -1.54482 139.706141 -1.443987 C 139.827531 -1.332386 139.888226 -1.145406 139.888226 -0.882067 L 139.888226 2.445401 L 143.214716 2.445401 C 143.549518 2.445401 143.761952 2.576581 143.852995 2.83992 C 143.944037 3.113049 143.990048 3.761117 143.990048 4.784125 C 143.990048 5.807133 143.944037 6.450307 143.852995 6.713646 C 143.761952 6.976985 143.549518 7.108165 143.214716 7.108165 Z M 143.214716 7.108165 " stroke="#808080" stroke-width="0.42787" stroke-opacity="1" stroke-miterlimit="4"/><g fill="#ffffff" fill-opacity="1"><g transform="translate(261.874875, 149.277265)"><g><path d="M 66.921875 -82.5625 C 70.679688 -82.5625 73.390625 -82.457031 75.046875 -82.25 C 76.660156 -82.007812 77.726562 -81.648438 78.25 -81.171875 C 78.738281 -80.679688 78.984375 -79.847656 78.984375 -78.671875 L 78.984375 -3.578125 C 78.984375 -2.398438 78.71875 -1.570312 78.1875 -1.09375 C 77.664062 -0.601562 76.492188 -0.238281 74.671875 0 C 72.816406 0.238281 69.804688 0.359375 65.640625 0.359375 C 61.484375 0.359375 58.65625 0.117188 57.15625 -0.359375 C 55.625 -0.804688 54.535156 -1.632812 53.890625 -2.84375 L 31.03125 -42.734375 L 31.03125 -3.453125 C 31.03125 -2.285156 30.789062 -1.457031 30.3125 -0.96875 C 29.78125 -0.488281 28.707031 -0.144531 27.09375 0.0625 C 25.4375 0.257812 22.726562 0.359375 18.96875 0.359375 C 15.207031 0.359375 12.519531 0.238281 10.90625 0 C 9.25 -0.195312 8.179688 -0.539062 7.703125 -1.03125 C 7.210938 -1.476562 6.96875 -2.285156 6.96875 -3.453125 L 6.96875 -78.5625 C 6.96875 -79.726562 7.234375 -80.578125 7.765625 -81.109375 C 8.242188 -81.585938 9.414062 -81.945312 11.28125 -82.1875 C 13.09375 -82.4375 16.082031 -82.5625 20.25 -82.5625 C 24.40625 -82.5625 27.253906 -82.335938 28.796875 -81.890625 C 30.285156 -81.410156 31.351562 -80.5625 32 -79.34375 L 54.859375 -39.34375 L 54.859375 -78.671875 C 54.859375 -79.847656 55.117188 -80.679688 55.640625 -81.171875 C 56.128906 -81.648438 57.203125 -82.007812 58.859375 -82.25 C 60.472656 -82.457031 63.160156 -82.5625 66.921875 -82.5625 Z M 66.921875 -82.5625 "/></g></g></g><g fill="#ffffff" fill-opacity="1"><g transform="translate(343.416257, 149.277265)"><g><path d="M 35.15625 -63.28125 C 45.820312 -63.28125 53.601562 -60.675781 58.5 -55.46875 C 63.34375 -50.25 65.765625 -42.101562 65.765625 -31.03125 C 65.765625 -19.957031 63.34375 -11.816406 58.5 -6.609375 C 53.601562 -1.390625 45.820312 1.21875 35.15625 1.21875 C 24.488281 1.21875 16.707031 -1.410156 11.8125 -6.671875 C 6.925781 -11.878906 4.484375 -20 4.484375 -31.03125 C 4.484375 -42.0625 6.925781 -50.207031 11.8125 -55.46875 C 16.707031 -60.675781 24.488281 -63.28125 35.15625 -63.28125 Z M 35.15625 -16.90625 C 38.144531 -16.90625 40.1875 -17.957031 41.28125 -20.0625 C 42.332031 -22.125 42.859375 -25.78125 42.859375 -31.03125 C 42.859375 -36.289062 42.332031 -39.96875 41.28125 -42.0625 C 40.1875 -44.125 38.144531 -45.15625 35.15625 -45.15625 C 32.164062 -45.15625 30.144531 -44.125 29.09375 -42.0625 C 28 -39.96875 27.453125 -36.289062 27.453125 -31.03125 C 27.453125 -25.78125 28 -22.125 29.09375 -20.0625 C 30.144531 -17.957031 32.164062 -16.90625 35.15625 -16.90625 Z M 35.15625 -16.90625 "/></g></g></g><g fill="#ffffff" fill-opacity="1"><g transform="translate(409.319746, 149.277265)"><g><path d="M 28.546875 -82.671875 L 28.546875 -55.640625 C 32.140625 -60.734375 37.78125 -63.28125 45.46875 -63.28125 C 53.1875 -63.28125 59.003906 -60.753906 62.921875 -55.703125 C 66.835938 -50.648438 68.796875 -42.425781 68.796875 -31.03125 C 68.796875 -19.632812 66.835938 -11.410156 62.921875 -6.359375 C 59.003906 -1.304688 53.1875 1.21875 45.46875 1.21875 C 37.625 1.21875 31.863281 -1.429688 28.1875 -6.734375 L 28.0625 -3.21875 C 28.019531 -2.164062 27.78125 -1.414062 27.34375 -0.96875 C 26.894531 -0.519531 25.921875 -0.195312 24.421875 0 C 22.890625 0.238281 20.425781 0.359375 17.03125 0.359375 C 13.59375 0.359375 11.128906 0.257812 9.640625 0.0625 C 8.097656 -0.144531 7.109375 -0.488281 6.671875 -0.96875 C 6.179688 -1.414062 5.9375 -2.164062 5.9375 -3.21875 L 5.9375 -82.671875 C 5.9375 -83.722656 6.179688 -84.492188 6.671875 -84.984375 C 7.148438 -85.429688 8.160156 -85.753906 9.703125 -85.953125 C 11.234375 -86.148438 13.757812 -86.25 17.28125 -86.25 C 20.789062 -86.25 23.316406 -86.148438 24.859375 -85.953125 C 26.390625 -85.753906 27.398438 -85.429688 27.890625 -84.984375 C 28.328125 -84.535156 28.546875 -83.765625 28.546875 -82.671875 Z M 28.546875 -31.03125 C 28.546875 -25.9375 29.210938 -22.363281 30.546875 -20.3125 C 31.835938 -18.207031 34.140625 -17.15625 37.453125 -17.15625 C 40.484375 -17.15625 42.628906 -18.207031 43.890625 -20.3125 C 45.097656 -22.363281 45.703125 -25.9375 45.703125 -31.03125 C 45.703125 -36.125 45.097656 -39.722656 43.890625 -41.828125 C 42.628906 -43.890625 40.484375 -44.921875 37.453125 -44.921875 C 34.140625 -44.921875 31.835938 -43.890625 30.546875 -41.828125 C 29.210938 -39.722656 28.546875 -36.125 28.546875 -31.03125 Z M 28.546875 -31.03125 "/></g></g></g><g fill="#ffffff" fill-opacity="1"><g transform="translate(478.43564, 149.277265)"><g><path d="M 30.90625 -19.09375 L 31.515625 -19.09375 C 32.609375 -19.09375 33.398438 -18.890625 33.890625 -18.484375 C 34.328125 -18.078125 34.671875 -17.207031 34.921875 -15.875 C 35.160156 -14.507812 35.28125 -12.367188 35.28125 -9.453125 C 35.28125 -5.328125 34.976562 -2.679688 34.375 -1.515625 C 33.757812 -0.335938 32.40625 0.25 30.3125 0.25 L 23.34375 0.25 C 16.507812 0.25 11.898438 -0.960938 9.515625 -3.390625 C 7.128906 -5.773438 5.9375 -10.441406 5.9375 -17.390625 L 5.9375 -82.671875 C 5.9375 -83.722656 6.179688 -84.492188 6.671875 -84.984375 C 7.148438 -85.429688 8.160156 -85.753906 9.703125 -85.953125 C 11.234375 -86.148438 13.757812 -86.25 17.28125 -86.25 C 20.789062 -86.25 23.316406 -86.148438 24.859375 -85.953125 C 26.390625 -85.753906 27.398438 -85.429688 27.890625 -84.984375 C 28.328125 -84.535156 28.546875 -83.765625 28.546875 -82.671875 L 28.546875 -21.703125 C 28.546875 -20.691406 28.726562 -20.003906 29.09375 -19.640625 C 29.414062 -19.273438 30.019531 -19.09375 30.90625 -19.09375 Z M 30.90625 -19.09375 "/></g></g></g><g fill="#ffffff" fill-opacity="1"><g transform="translate(511.305561, 149.277265)"><g><path d="M 59.828125 -26.3125 L 26.90625 -26.3125 C 27.195312 -22.3125 28.046875 -19.539062 29.453125 -18 C 30.828125 -16.425781 32.972656 -15.640625 35.890625 -15.640625 C 37.703125 -15.640625 39.113281 -15.941406 40.125 -16.546875 C 41.09375 -17.109375 41.617188 -17.875 41.703125 -18.84375 C 41.785156 -19.9375 41.988281 -20.6875 42.3125 -21.09375 C 42.59375 -21.5 43.421875 -21.820312 44.796875 -22.0625 C 46.128906 -22.257812 48.410156 -22.359375 51.640625 -22.359375 C 53.828125 -22.359375 55.484375 -22.34375 56.609375 -22.3125 C 57.742188 -22.226562 58.773438 -22.125 59.703125 -22 C 60.628906 -21.84375 61.253906 -21.582031 61.578125 -21.21875 C 61.910156 -20.8125 62.15625 -20.347656 62.3125 -19.828125 C 62.476562 -19.296875 62.5625 -18.566406 62.5625 -17.640625 C 62.5625 -15.253906 62.070312 -12.988281 61.09375 -10.84375 C 60.082031 -8.664062 58.566406 -6.664062 56.546875 -4.84375 C 54.535156 -2.988281 51.726562 -1.515625 48.125 -0.421875 C 44.53125 0.671875 40.367188 1.21875 35.640625 1.21875 C 25.054688 1.21875 17.21875 -1.410156 12.125 -6.671875 C 7.03125 -11.921875 4.484375 -20.039062 4.484375 -31.03125 C 4.484375 -42.101562 6.925781 -50.25 11.8125 -55.46875 C 16.664062 -60.675781 24.40625 -63.28125 35.03125 -63.28125 C 44.570312 -63.28125 51.707031 -60.753906 56.4375 -55.703125 C 61.125 -50.648438 63.46875 -43.617188 63.46875 -34.609375 L 63.46875 -31.890625 C 63.46875 -29.703125 63.242188 -28.222656 62.796875 -27.453125 C 62.347656 -26.691406 61.359375 -26.3125 59.828125 -26.3125 Z M 35.40625 -46.4375 C 32.695312 -46.4375 30.710938 -45.726562 29.453125 -44.3125 C 28.160156 -42.851562 27.351562 -40.566406 27.03125 -37.453125 L 42.0625 -37.453125 L 42.0625 -38.859375 C 42.0625 -41.273438 41.597656 -43.148438 40.671875 -44.484375 C 39.742188 -45.785156 37.988281 -46.4375 35.40625 -46.4375 Z M 35.40625 -46.4375 "/></g></g></g><g fill="#ffffff" fill-opacity="1"><g transform="translate(574.602688, 149.277265)"><g><path d="M 32.421875 -28.796875 L 31.03125 -28.796875 L 31.03125 -3.453125 C 31.03125 -2.285156 30.789062 -1.457031 30.3125 -0.96875 C 29.78125 -0.488281 28.707031 -0.144531 27.09375 0.0625 C 25.4375 0.257812 22.726562 0.359375 18.96875 0.359375 C 15.207031 0.359375 12.519531 0.238281 10.90625 0 C 9.25 -0.195312 8.179688 -0.539062 7.703125 -1.03125 C 7.210938 -1.476562 6.96875 -2.285156 6.96875 -3.453125 L 6.96875 -78.3125 C 6.96875 -79.445312 7.25 -80.273438 7.8125 -80.796875 C 8.34375 -81.285156 9.476562 -81.648438 11.21875 -81.890625 C 12.914062 -82.085938 15.679688 -82.1875 19.515625 -82.1875 L 38.25 -82.1875 C 49.769531 -82.1875 58.070312 -80.046875 63.15625 -75.765625 C 68.207031 -71.441406 70.734375 -64.515625 70.734375 -54.984375 C 70.734375 -44.835938 66.65625 -37.644531 58.5 -33.40625 C 60.882812 -31.90625 62.941406 -29.960938 64.671875 -27.578125 C 68.671875 -21.878906 71.441406 -14.460938 72.984375 -5.328125 C 73.179688 -4.316406 73.238281 -3.46875 73.15625 -2.78125 C 73.082031 -2.0625 72.679688 -1.476562 71.953125 -1.03125 C 71.179688 -0.539062 69.847656 -0.195312 67.953125 0 C 66.015625 0.238281 63.304688 0.359375 59.828125 0.359375 C 56.597656 0.359375 54.210938 0.238281 52.671875 0 C 51.097656 -0.238281 50.066406 -0.582031 49.578125 -1.03125 C 49.054688 -1.476562 48.675781 -2.207031 48.4375 -3.21875 C 47.0625 -9.519531 45.019531 -15.273438 42.3125 -20.484375 C 39.40625 -25.742188 36.109375 -28.515625 32.421875 -28.796875 Z M 31.03125 -62.078125 L 31.03125 -47.640625 L 37.453125 -47.640625 C 40.804688 -47.640625 43.132812 -48.101562 44.4375 -49.03125 C 45.6875 -49.96875 46.3125 -51.910156 46.3125 -54.859375 C 46.3125 -57.441406 45.625 -59.300781 44.25 -60.4375 C 42.875 -61.53125 40.609375 -62.078125 37.453125 -62.078125 Z M 31.03125 -62.078125 "/></g></g></g><g fill="#ffffff" fill-opacity="1"><g transform="translate(647.18085, 149.277265)"><g/></g></g><g fill="#ffffff" fill-opacity="1"><g transform="translate(668.898164, 149.277265)"><g/></g></g><g fill="#ffffff" fill-opacity="1"><g transform="translate(690.615478, 149.277265)"><g/></g></g><g fill="#ffffff" fill-opacity="1"><g transform="translate(712.332793, 149.277265)"><g/></g></g><g fill="#ffffff" fill-opacity="1"><g transform="translate(734.050107, 149.277265)"><g/></g></g><g fill="#ffffff" fill-opacity="1"><g transform="translate(755.78975, 149.277265)"><g><path d="M 46.3125 -43.46875 L 33.03125 -43.46875 L 33.03125 -21.9375 C 33.03125 -20.8125 33.375 -19.945312 34.0625 -19.34375 C 34.75 -18.6875 35.679688 -18.359375 36.859375 -18.359375 C 38.515625 -18.359375 40.210938 -18.6875 41.953125 -19.34375 C 43.398438 -19.820312 44.570312 -19.695312 45.46875 -18.96875 C 46.351562 -18.238281 47.421875 -16.179688 48.671875 -12.796875 C 49.722656 -10.046875 50.25 -7.921875 50.25 -6.421875 C 50.25 -4.804688 49.378906 -3.492188 47.640625 -2.484375 C 44.003906 -0.179688 38.390625 0.96875 30.796875 0.96875 C 23.191406 0.96875 17.894531 -0.726562 14.90625 -4.125 C 11.914062 -7.476562 10.421875 -12.890625 10.421875 -20.359375 L 10.421875 -43.46875 L 4.84375 -43.46875 C 3.914062 -43.46875 3.25 -43.644531 2.84375 -44 C 2.445312 -44.363281 2.164062 -45.175781 2 -46.4375 C 1.84375 -47.644531 1.765625 -49.664062 1.765625 -52.5 C 1.765625 -55.320312 1.863281 -57.335938 2.0625 -58.546875 C 2.21875 -59.765625 2.476562 -60.554688 2.84375 -60.921875 C 3.207031 -61.285156 3.875 -61.503906 4.84375 -61.578125 L 11.390625 -62.078125 L 11.390625 -75.34375 C 11.390625 -76.394531 11.65625 -77.144531 12.1875 -77.59375 C 12.664062 -77.988281 13.613281 -78.269531 15.03125 -78.4375 C 16.445312 -78.59375 18.851562 -78.671875 22.25 -78.671875 C 25.644531 -78.671875 28.046875 -78.59375 29.453125 -78.4375 C 30.828125 -78.269531 31.78125 -77.988281 32.3125 -77.59375 C 32.789062 -77.144531 33.03125 -76.394531 33.03125 -75.34375 L 33.03125 -62.078125 L 46.3125 -62.078125 C 47.644531 -62.078125 48.492188 -61.550781 48.859375 -60.5 C 49.222656 -59.40625 49.40625 -56.816406 49.40625 -52.734375 C 49.40625 -48.648438 49.222656 -46.082031 48.859375 -45.03125 C 48.492188 -43.988281 47.644531 -43.46875 46.3125 -43.46875 Z M 46.3125 -43.46875 "/></g></g></g><g clip-path="url(#5cadd490e3)"><g clip-path="url(#f82b180ea4)"><path fill="#f7931a" d="M 62.539062 45.167969 L 188.191406 45.167969 L 188.191406 170.824219 L 62.539062 170.824219 Z M 62.539062 45.167969 " fill-opacity="1" fill-rule="nonzero"/></g></g><g clip-path="url(#716667d642)"><g clip-path="url(#097f037dbe)"><path fill="#ffffff" d="M 5.550781 88.757812 L 89.316406 88.757812 L 89.316406 172.527344 L 5.550781 172.527344 Z M 5.550781 88.757812 " fill-opacity="1" fill-rule="nonzero"/></g></g></svg>